<?xml version="1.0" standalone="no"?>
<!DOCTYPE svg PUBLIC "-//W3C//DTD SVG 20010904//EN"
 "http://www.w3.org/TR/2001/REC-SVG-20010904/DTD/svg10.dtd">
<svg version="1.0" xmlns="http://www.w3.org/2000/svg"
 width="6846.000000pt" height="9682.000000pt" viewBox="0 0 6846.000000 9682.000000"
 preserveAspectRatio="xMidYMid meet">

<g transform="translate(0.000000,9682.000000) scale(0.100000,-0.100000)"
fill="#000000" stroke="none">
<path d="M4948 92513 l-38 -26 0 -1798 0 -1799 289 0 288 0 12 57 c6 31 17 64
25 72 8 10 12 29 9 49 -5 33 -23 45 -23 15 0 -12 -3 -14 -11 -6 -8 8 -8 20 0
45 6 18 12 60 13 93 3 53 -2 70 -36 138 l-40 78 11 73 c12 83 52 154 106 187
18 10 26 19 20 19 -7 0 -13 8 -13 19 0 14 6 17 26 13 16 -3 30 1 35 9 7 11 9
10 9 -3 0 -13 8 -18 26 -18 30 0 84 -35 84 -54 0 -14 42 -26 89 -26 14 0 52
18 84 39 49 34 55 40 37 46 -31 10 -24 22 19 29 57 9 100 -20 136 -90 16 -31
34 -58 41 -61 7 -3 19 -26 27 -51 38 -123 49 -172 44 -191 -3 -12 -1 -23 3
-26 11 -7 22 64 14 95 -10 43 -10 65 -2 76 9 12 -11 84 -24 84 -4 0 -8 6 -8
13 0 7 -11 29 -24 48 -14 20 -28 48 -32 63 -9 36 -60 79 -114 95 -74 22 -115
45 -115 65 0 10 -10 22 -21 27 -44 16 -108 139 -108 209 -1 25 3 60 8 79 6 24
5 32 -3 27 -21 -13 -11 18 34 105 52 103 68 185 41 204 -9 7 -16 17 -14 21 5
21 -15 54 -32 54 -11 0 -23 6 -27 13 -16 25 -63 60 -82 62 -11 1 -27 8 -37 16
-16 13 -16 12 -5 -9 7 -14 18 -21 27 -18 8 3 14 -1 14 -9 0 -8 6 -15 14 -15
12 0 26 -20 26 -37 0 -2 -10 -3 -22 -1 -13 2 -22 9 -20 16 1 6 -4 12 -11 12
-18 0 -60 48 -76 88 -13 31 -39 48 -28 17 7 -17 -9 -30 -18 -14 -10 15 5 120
16 114 5 -4 12 2 16 11 6 16 7 16 13 -2 4 -11 7 3 5 31 -1 27 4 69 11 93 7 23
11 49 7 57 -3 8 2 26 11 40 9 14 14 30 11 36 -10 14 51 103 91 134 18 14 34
32 34 39 0 17 38 50 77 67 17 7 29 17 27 21 -3 4 3 19 12 33 10 16 20 22 24
15 10 -16 33 16 60 83 22 53 26 57 49 52 23 -5 29 1 51 47 22 47 29 53 59 56
19 2 40 -3 49 -11 22 -19 76 -31 132 -28 83 3 242 103 212 133 -9 9 -16 8 -29
-4 -10 -8 -29 -21 -43 -28 l-25 -13 23 25 c12 13 22 32 22 41 0 9 5 19 11 22
6 4 8 13 5 21 -7 18 4 45 15 38 9 -5 13 16 10 54 -1 12 3 22 9 22 5 0 10 18
10 40 0 22 4 40 10 40 5 0 16 16 25 35 9 19 23 39 31 46 8 6 14 17 14 23 0 6
9 19 20 28 30 27 121 88 130 88 4 0 5 11 2 25 -2 14 -9 25 -14 25 -6 0 -8 12
-5 29 3 15 2 32 -3 37 -12 12 11 80 35 102 10 9 15 11 11 5 -4 -7 -5 -13 -2
-13 10 0 66 59 66 70 0 5 5 9 11 8 6 -2 14 3 16 10 4 9 -58 12 -286 12 -247 0
-291 -2 -291 -14 0 -8 -5 -18 -10 -21 -13 -8 -42 14 -34 26 3 5 -33 9 -80 9
-80 0 -86 -1 -86 -21 0 -11 4 -18 9 -15 16 10 19 -32 4 -53 -8 -12 -16 -29
-18 -39 -2 -9 -10 -44 -18 -77 -13 -56 -13 -63 4 -95 12 -22 36 -44 66 -60 57
-30 86 -68 85 -110 -1 -41 -3 -42 -35 -27 -18 8 -25 17 -21 29 2 9 0 19 -6 23
-5 3 -10 2 -10 -3 0 -5 -11 -9 -25 -9 -15 0 -25 5 -25 14 0 8 -6 13 -12 10
-19 -7 -63 19 -82 47 -9 14 -16 45 -16 68 0 33 -5 46 -21 56 -26 16 -18 46 22
80 16 13 29 29 29 34 0 6 11 26 25 44 28 37 30 44 13 44 -7 0 -28 -17 -45 -37
-27 -31 -33 -34 -33 -18 -1 18 -2 17 -15 -5 -8 -14 -12 -32 -9 -41 2 -9 -8
-24 -27 -38 l-31 -23 12 22 c8 15 8 26 2 32 -10 10 -11 9 -39 -40 l-15 -27 5
35 6 35 -15 -34 c-20 -46 -28 -33 -9 14 20 47 12 58 -10 15 -9 -18 -14 -42
-11 -55 5 -21 9 -22 43 -15 35 8 36 7 19 -6 -11 -8 -14 -14 -8 -14 7 0 12 -8
12 -18 0 -9 9 -23 20 -30 11 -7 20 -17 20 -23 0 -6 11 -25 25 -43 24 -31 25
-38 20 -136 -2 -66 0 -99 5 -90 16 24 11 1 -6 -36 -16 -34 -13 -71 6 -59 5 3
10 0 11 -7 1 -25 8 -63 17 -108 8 -32 7 -51 -1 -66 -7 -12 -25 -46 -41 -75
-39 -73 -82 -126 -125 -154 -20 -12 -54 -39 -76 -59 -22 -20 -50 -36 -62 -36
-17 0 -23 -6 -23 -22 0 -14 -25 -52 -60 -91 -33 -38 -60 -75 -60 -83 0 -26
-29 -27 -65 -3 -38 26 -43 48 -36 169 3 66 51 171 89 196 27 18 86 22 143 10
35 -8 35 -8 49 36 7 23 20 56 27 71 11 22 12 32 2 43 -9 11 -8 14 4 14 9 0 19
5 23 12 4 6 3 8 -2 5 -6 -3 -16 -2 -23 3 -11 6 -7 12 15 23 27 14 29 19 26 56
-3 27 -9 41 -18 41 -8 0 -14 7 -14 15 0 8 -19 28 -42 45 -22 16 -37 30 -33 30
4 0 -11 13 -33 30 -28 20 -40 35 -36 45 4 10 2 15 -6 13 -12 -3 -22 19 -40 92
-10 39 -2 90 10 70 4 -7 7 12 6 41 -1 54 26 126 73 189 35 49 69 105 76 128
l6 22 -199 0 c-151 0 -202 -3 -205 -12 -4 -10 -6 -10 -6 0 -1 9 -46 12 -193
11 -190 0 -193 -1 -230 -26z m392 -29 c0 -8 -4 -14 -10 -14 -5 0 -10 9 -10 21
0 11 5 17 10 14 6 -3 10 -13 10 -21z m306 0 c-4 -9 -9 -15 -11 -12 -3 3 -3 13
1 22 4 9 9 15 11 12 3 -3 3 -13 -1 -22z m559 -14 c-5 -8 -11 -8 -17 -2 -6 6
-7 16 -3 22 5 8 11 8 17 2 6 -6 7 -16 3 -22z m-776 -62 c0 -38 -1 -40 -10 -19
-8 22 -4 61 7 61 2 0 4 -19 3 -42z m235 -3 c-4 -8 -8 -15 -10 -15 -2 0 -4 7
-4 15 0 8 4 15 10 15 5 0 7 -7 4 -15z m496 -50 c0 -8 -7 -15 -15 -15 -9 0 -12
6 -9 15 4 8 10 15 15 15 5 0 9 -7 9 -15z m4 -110 c-18 -27 -34 -25 -34 6 0 14
7 19 25 19 25 0 25 -1 9 -25z m172 -72 c-7 -52 -10 -58 -25 -48 -21 13 -4 95
20 95 8 0 10 -14 5 -47z m-1226 -15 c0 -36 -4 -35 -14 5 -4 16 -2 27 4 27 5 0
10 -14 10 -32z m955 -268 c3 -5 -1 -10 -9 -10 -9 0 -16 5 -16 10 0 6 4 10 9
10 6 0 13 -4 16 -10z m85 -8 c0 -5 -10 -14 -22 -20 -14 -7 -17 -11 -8 -11 8
-1 30 8 48 19 30 19 32 19 32 2 0 -10 -13 -30 -28 -45 -22 -21 -27 -34 -24
-56 4 -31 1 -35 -42 -45 -22 -6 -27 -4 -23 7 3 8 -7 39 -23 70 l-28 55 24 5
c17 3 21 1 15 -7 -13 -15 9 -43 34 -43 11 0 22 3 25 7 3 3 16 14 30 23 13 9
20 17 14 17 -6 0 -19 -7 -30 -15 -26 -20 -52 -19 -50 3 1 13 25 32 54 41 1 1
2 -3 2 -7z m-340 -122 c0 -5 -2 -10 -4 -10 -3 0 -8 5 -11 10 -3 6 -1 10 4 10
6 0 11 -4 11 -10z m-400 -259 c0 -3 -5 -13 -10 -21 -15 -24 -32 2 -24 35 7 26
8 27 20 10 8 -11 14 -21 14 -24z m-350 -401 c0 -5 -4 -10 -10 -10 -5 0 -10 5
-10 10 0 6 5 10 10 10 6 0 10 -4 10 -10z m451 -93 c-1 -4 -1 -14 -1 -23 0 -8
-4 -12 -10 -9 -13 8 -13 48 1 43 6 -2 10 -7 10 -11z m-324 -275 c-10 -10 -17
-24 -17 -30 0 -6 -5 -14 -10 -17 -7 -4 -8 3 -4 22 9 38 13 43 31 43 15 0 14
-2 0 -18z m353 -28 c0 -9 10 -26 23 -38 12 -11 22 -27 23 -33 1 -7 2 -19 3
-27 0 -8 10 -17 20 -21 27 -8 32 -28 16 -59 -8 -14 -11 -26 -8 -26 11 0 32 35
33 53 0 17 20 25 20 8 0 -15 33 -22 41 -9 7 10 12 9 26 -5 17 -17 16 -18 -24
-13 -35 4 -44 1 -56 -18 -14 -21 -14 -22 6 -22 12 1 25 5 29 11 4 5 11 -2 17
-17 5 -14 15 -29 20 -33 6 -3 11 -14 11 -23 0 -11 -8 -6 -21 16 -26 39 -30 40
-23 4 4 -19 -1 -40 -15 -63 -11 -19 -25 -44 -31 -56 -5 -13 -14 -23 -20 -23
-5 0 -10 -6 -10 -14 0 -8 -10 -13 -23 -13 -34 0 -67 -32 -67 -65 0 -15 -4 -29
-9 -33 -6 -3 -8 10 -5 32 2 21 1 32 -2 25 -6 -13 -35 -49 -67 -84 -23 -24 -16
-35 8 -12 14 15 18 15 26 3 5 -8 9 -24 9 -36 0 -12 3 -30 6 -40 6 -15 4 -16
-7 -5 -7 6 -20 12 -28 12 -10 0 -12 -3 -5 -8 6 -4 13 -15 17 -24 3 -10 13 -18
21 -18 7 0 27 -7 42 -15 16 -8 39 -15 50 -15 12 0 25 -7 28 -16 5 -12 10 -13
19 -6 13 11 42 11 53 -1 4 -4 2 -7 -4 -7 -7 0 -12 -8 -12 -17 0 -14 2 -15 9
-5 4 7 20 15 35 16 21 3 25 0 21 -15 -4 -12 0 -19 14 -24 10 -3 21 -14 24 -25
3 -11 16 -24 30 -29 18 -7 24 -16 22 -35 -2 -14 0 -24 3 -23 4 1 8 -2 9 -6 1
-4 12 -17 25 -28 20 -17 21 -18 3 -12 -11 3 -26 10 -32 16 -9 6 -13 6 -13 -2
0 -6 15 -20 33 -31 17 -11 29 -20 25 -20 -3 0 -13 -3 -22 -6 -11 -4 -16 -1
-16 11 0 9 -4 14 -9 10 -6 -3 -15 3 -20 12 -10 17 -12 17 -26 -1 -13 -17 -15
-18 -15 -3 0 9 5 17 11 17 6 0 9 10 7 22 -3 25 -45 40 -114 42 -34 0 -39 3
-27 14 20 20 16 29 -17 35 -19 4 -40 0 -58 -10 -28 -16 -31 -16 -56 0 -30 20
-68 89 -60 111 3 9 -7 25 -25 42 -17 15 -31 36 -31 46 0 11 -4 17 -9 14 -5 -4
-19 10 -31 29 -12 19 -26 35 -32 35 -6 0 -8 9 -5 20 3 11 2 20 -3 20 -13 0 8
73 24 85 8 6 18 23 21 38 4 14 13 31 21 38 8 6 14 25 14 41 0 23 4 28 18 24
25 -8 140 100 124 116 -7 7 -12 20 -12 30 0 10 -4 18 -10 18 -11 0 -14 123 -3
133 12 12 23 7 23 -9z m80 -570 c0 -8 -5 -12 -10 -9 -6 4 -8 11 -5 16 9 14 15
11 15 -7z m47 -25 c-3 -11 2 -19 14 -22 11 -3 19 -13 18 -24 0 -16 -1 -16 -8
2 -8 19 -9 18 -13 -5 -4 -25 -4 -25 -21 8 -10 17 -22 32 -27 32 -5 0 -7 6 -4
14 8 21 46 16 41 -5z m-77 -40 c0 -6 -4 -7 -10 -4 -5 3 -10 11 -10 16 0 6 5 7
10 4 6 -3 10 -11 10 -16z m-565 -51 c-17 -23 -17 -23 -10 12 10 46 19 60 23
33 2 -13 -4 -33 -13 -45z m335 12 c0 -5 -5 -10 -11 -10 -5 0 -7 5 -4 10 3 6 8
10 11 10 2 0 4 -4 4 -10z m98 -110 c8 -16 11 -34 8 -39 -4 -5 6 -19 20 -30 15
-12 22 -21 17 -21 -19 0 -64 43 -59 56 3 7 1 16 -4 19 -9 6 -10 45 0 45 3 0
11 -13 18 -30z m352 -221 c0 -6 -4 -7 -10 -4 -5 3 -10 11 -10 16 0 6 5 7 10 4
6 -3 10 -11 10 -16z m-480 -70 c-7 -11 -14 -19 -16 -16 -7 7 7 37 17 37 6 0 5
-9 -1 -21z m-270 -243 c0 -2 -7 -9 -15 -16 -13 -11 -14 -10 -9 4 5 14 24 23
24 12z m41 -37 c-5 -13 -10 -19 -10 -12 -1 15 10 45 15 40 3 -2 0 -15 -5 -28z
m29 -9 c0 -5 -4 -10 -10 -10 -5 0 -10 5 -10 10 0 6 5 10 10 10 6 0 10 -4 10
-10z"/>
<path d="M5489 90273 c-13 -16 -12 -17 4 -4 16 13 21 21 13 21 -2 0 -10 -8
-17 -17z"/>
<path d="M5437 90243 c-2 -5 -4 -26 -5 -48 l-1 -40 10 32 c5 18 14 35 19 38 6
3 10 10 10 16 0 11 -27 12 -33 2z"/>
<path d="M5331 90224 c0 -11 3 -14 6 -6 3 7 2 16 -1 19 -3 4 -6 -2 -5 -13z"/>
<path d="M5810 92525 c0 -8 4 -15 10 -15 5 0 7 7 4 15 -4 8 -8 15 -10 15 -2 0
-4 -7 -4 -15z"/>
<path d="M5976 92524 c-7 -17 0 -34 14 -34 13 0 40 30 40 43 0 7 -10 1 -21
-13 -20 -24 -20 -24 -14 -2 7 25 -10 31 -19 6z"/>
<path d="M7185 92530 c-3 -5 -1 -10 6 -10 8 0 10 -16 6 -52 -7 -68 4 -144 22
-140 7 1 10 -2 7 -7 -3 -4 22 -38 55 -75 35 -37 57 -70 53 -77 -3 -6 -1 -15 5
-19 7 -4 18 -25 26 -46 16 -49 39 -56 42 -14 1 18 -2 28 -7 25 -6 -4 -10 1
-10 10 0 34 33 -2 37 -41 2 -21 9 -44 15 -51 8 -10 8 -17 -2 -26 -10 -10 -12
-9 -7 4 7 20 -11 39 -36 39 -12 0 -17 -5 -14 -14 19 -49 17 -84 -6 -137 -33
-75 -42 -183 -21 -256 13 -46 14 -57 3 -64 -8 -5 -11 -9 -6 -9 4 0 0 -12 -10
-27 -25 -41 -61 -84 -69 -82 -28 6 -107 -132 -83 -146 5 -4 5 -13 0 -23 -12
-24 -3 -79 22 -134 18 -40 27 -47 50 -48 21 0 31 -7 40 -27 8 -18 21 -29 37
-32 14 -1 27 -7 30 -11 8 -14 62 -31 77 -26 7 3 31 -1 54 -9 55 -20 82 -19 44
1 -49 25 -49 31 2 23 26 -5 64 -10 83 -12 33 -4 76 -21 130 -52 48 -27 79 -85
47 -85 -9 0 -12 -10 -9 -30 4 -28 22 -44 22 -19 0 5 4 8 9 4 6 -3 8 -15 6 -27
-3 -11 -2 -18 2 -14 3 3 12 1 20 -5 10 -9 10 -15 2 -25 -6 -8 -9 -24 -6 -36 4
-12 1 -28 -4 -35 -15 -17 -3 -33 23 -28 11 3 18 2 14 -2 -3 -3 -1 -12 5 -19 6
-8 8 -22 4 -31 -5 -10 -7 -28 -6 -40 2 -15 -3 -23 -13 -23 -11 0 -16 -9 -15
-27 1 -31 16 -84 19 -68 1 6 5 -1 9 -14 11 -40 -21 -229 -47 -277 -13 -25 -4
-94 12 -94 6 0 4 -5 -4 -10 -8 -5 -10 -10 -4 -10 26 0 -1 -62 -50 -113 -75
-79 -123 -108 -194 -114 -62 -6 -96 11 -47 23 52 13 21 34 -51 34 -55 0 -99
-18 -159 -64 -66 -50 -93 -94 -90 -144 2 -30 0 -39 -9 -36 -15 6 -50 -61 -41
-77 4 -5 0 -20 -8 -32 -16 -25 -35 -101 -19 -78 17 24 21 -3 6 -44 -19 -54
-18 -55 17 -43 16 6 32 8 35 5 3 -3 -4 -8 -15 -12 l-20 -6 21 -35 c16 -27 19
-44 14 -82 -12 -80 -25 -109 -71 -151 -36 -33 -50 -56 -68 -114 l-24 -72 341
-3 340 -2 49 30 c69 43 117 54 232 55 77 0 106 -4 125 -17 59 -38 210 -34 255
8 14 13 30 24 35 24 5 0 19 19 31 43 25 48 29 142 8 204 -30 91 21 219 133
336 40 41 83 77 96 81 l22 7 0 1439 0 1440 -64 -36 c-54 -29 -73 -35 -113 -32
l-48 3 -23 -49 c-12 -27 -27 -70 -34 -95 -6 -25 -17 -53 -24 -62 -8 -8 -14
-20 -14 -25 -1 -18 -35 -52 -60 -58 -21 -6 -23 -5 -10 6 8 7 22 22 30 33 15
19 15 19 -13 2 -16 -10 -34 -16 -40 -14 -7 2 -24 -5 -39 -15 -16 -11 -28 -16
-28 -13 0 4 -16 -3 -35 -15 -19 -12 -43 -20 -52 -18 -25 4 -43 -10 -37 -27 4
-9 -7 -22 -27 -34 -31 -19 -48 -61 -25 -61 6 0 5 -4 -3 -9 -12 -8 -12 -14 -4
-33 l12 -23 0 23 c1 12 6 22 12 22 6 0 9 -15 7 -37 -3 -21 4 -62 14 -91 12
-35 16 -65 12 -88 -8 -43 -22 -45 -16 -3 3 22 1 30 -7 25 -6 -4 -11 -16 -11
-26 0 -25 -11 -51 -19 -46 -4 3 -5 -12 -2 -32 l4 -37 9 32 c13 51 26 47 17 -5
-4 -26 -8 -55 -8 -65 -1 -10 -5 -16 -11 -12 -11 7 -51 -25 -44 -37 3 -4 10 -8
15 -8 6 0 8 4 4 9 -7 12 12 24 25 16 6 -4 4 -16 -6 -31 -13 -19 -20 -22 -30
-13 -10 8 -14 8 -14 0 0 -6 -9 -11 -20 -11 -24 0 -26 17 -5 40 21 24 8 63 -19
56 -11 -3 -27 -6 -35 -6 -23 0 -5 -12 30 -19 l32 -6 -28 -33 c-24 -29 -65 -47
-50 -22 8 13 15 50 9 50 -2 0 -13 -9 -24 -20 -11 -11 -28 -20 -37 -20 -16 1
-16 2 1 15 17 13 18 15 3 15 -9 0 -17 5 -17 11 0 6 -9 8 -20 4 -36 -12 -21 14
23 37 23 13 47 23 52 24 33 3 65 18 65 30 0 8 5 14 10 14 6 0 10 7 10 15 0 19
-9 19 -34 0 -11 -8 -28 -15 -37 -15 -10 0 -21 -5 -24 -10 -4 -7 3 -9 22 -5 21
5 24 4 13 -4 -21 -15 -50 -13 -50 3 0 8 18 23 40 33 29 13 42 26 47 45 3 16
10 25 16 21 6 -3 7 -1 3 5 -4 7 -21 12 -37 12 -18 0 -28 4 -24 10 3 6 4 10 1
10 -2 0 -11 -14 -20 -31 -14 -28 -14 -30 1 -25 13 5 14 4 3 -9 -7 -8 -21 -15
-31 -15 -10 0 -20 -4 -23 -9 -3 -5 -16 -7 -29 -4 -18 4 -19 3 -7 -6 12 -8 5
-11 -28 -11 -44 0 -48 -4 -56 -53 -7 -40 -24 -57 -58 -57 -24 0 -29 4 -28 23
3 36 1 49 -9 43 -5 -3 -7 -24 -4 -46 5 -36 3 -40 -16 -40 -12 0 -21 -6 -21
-15 0 -17 16 -20 25 -5 3 5 16 9 28 8 12 0 30 3 39 7 12 5 20 2 24 -10 4 -9
13 -14 20 -11 29 11 1 -22 -37 -43 -42 -24 -48 -48 -10 -43 12 2 21 0 19 -5
-1 -4 4 -20 11 -34 10 -21 10 -31 -2 -60 l-15 -34 -2 40 c-1 22 -4 32 -7 23
-2 -10 -10 -18 -18 -18 -7 0 -18 -7 -25 -15 -7 -8 -16 -12 -21 -9 -16 10 -89
-19 -94 -38 -4 -10 -15 -18 -25 -18 -11 0 -24 -8 -30 -17 -10 -17 -10 -17 -8
1 2 13 -4 20 -17 21 -11 1 -37 5 -57 9 -41 7 -52 -1 -43 -37 6 -22 15 -27 58
-28 9 0 17 -7 17 -16 0 -13 3 -13 15 -3 13 11 15 6 15 -31 0 -34 -3 -41 -11
-29 -8 12 -10 10 -5 -10 l5 -25 -19 23 c-23 28 -34 29 -20 1 15 -27 5 -36 -16
-15 -23 23 -27 14 -9 -20 17 -34 64 -45 130 -31 84 18 105 19 105 8 0 -6 -10
-11 -22 -11 -12 0 -59 -12 -104 -27 -102 -33 -108 -31 -211 74 -66 67 -73 77
-73 114 0 47 39 130 72 151 13 8 35 18 50 22 15 3 48 27 73 51 24 25 50 45 57
45 36 1 40 17 14 55 -14 21 -26 42 -26 46 0 14 29 10 55 -7 14 -9 33 -13 45
-9 11 4 20 2 20 -4 0 -15 47 -14 56 1 4 6 -1 17 -12 24 -10 8 -32 26 -48 40
-20 19 -31 23 -39 15 -6 -6 -16 -11 -21 -11 -6 0 -2 7 8 15 16 12 17 17 6 30
-15 18 -34 20 -27 2 3 -8 -3 -14 -14 -14 -10 -1 -19 3 -19 9 0 16 32 37 58 38
26 0 31 20 5 20 -16 1 -16 2 1 15 17 13 21 13 32 -4 8 -10 24 -21 36 -24 21
-5 21 -5 6 7 -10 7 -18 18 -18 24 0 19 -49 26 -76 12 -13 -8 -27 -11 -30 -7
-11 11 7 28 47 44 21 8 39 20 39 25 0 6 7 5 15 -2 25 -20 57 1 88 59 l27 52
-32 -4 c-18 -3 -44 -7 -58 -9 -14 -3 -20 -3 -13 -1 8 3 9 12 4 26 -6 15 -4 29
4 41 16 21 1 56 -25 56 -12 1 -11 3 3 11 10 6 29 8 42 5 13 -3 27 -2 30 4 3 5
15 10 27 10 18 0 19 -2 7 -17 -13 -15 -12 -15 7 -3 17 11 20 17 11 30 -10 17
-47 16 -47 -1 0 -5 -7 -9 -15 -9 -8 0 -15 7 -15 15 0 10 10 15 30 15 17 0 30
5 30 11 0 5 4 8 9 5 11 -7 36 22 27 31 -3 3 -6 1 -6 -6 0 -7 -5 -9 -10 -6 -6
4 -7 11 -4 17 5 8 1 9 -10 5 -10 -4 -22 -7 -27 -7 -4 0 -6 -7 -3 -15 4 -11 0
-15 -16 -15 -16 0 -20 4 -16 15 3 8 2 15 -2 15 -15 0 -32 -24 -33 -44 0 -15
-2 -17 -6 -6 -3 8 -12 22 -20 32 -12 14 -18 14 -39 3 -24 -12 -64 -10 -64 4 0
4 5 12 12 19 9 9 6 12 -14 12 -15 0 -28 -6 -31 -12 -5 -16 -42 52 -39 70 2 6
-2 12 -8 12 -6 0 -9 -4 -5 -9 8 -14 -26 -19 -54 -9 -17 6 -27 5 -34 -4 -6 -9
-7 -7 -3 6 4 10 1 25 -5 32 -15 18 11 20 30 2 7 -8 5 3 -5 25 -10 20 -21 32
-24 27 -8 -13 -30 11 -34 37 -2 9 3 37 11 62 21 69 20 71 -41 71 -30 0 -58 -4
-61 -10z m215 -375 c0 -5 -9 1 -20 15 -11 14 -20 30 -20 35 0 6 9 -1 20 -15
11 -14 20 -29 20 -35z m78 27 c6 -18 -15 -14 -22 4 -4 10 -1 14 6 12 6 -2 14
-10 16 -16z m99 -84 c-3 -8 -6 -5 -6 6 -1 11 2 17 5 13 3 -3 4 -12 1 -19z
m718 -97 c-3 -6 -11 -11 -17 -11 -6 0 -6 6 2 15 14 17 26 13 15 -4z m155 5 c0
-7 -68 -44 -88 -48 -25 -4 -26 7 -4 31 14 17 92 31 92 17z m-1033 -28 c-3 -8
-6 -5 -6 6 -1 11 2 17 5 13 3 -3 4 -12 1 -19z m883 -48 c0 -5 -4 -10 -10 -10
-5 0 -10 5 -10 10 0 6 5 10 10 10 6 0 10 -4 10 -10z m-705 -11 c11 -16 1 -19
-13 -3 -7 8 -8 14 -3 14 5 0 13 -5 16 -11z m55 -23 c0 -3 -4 -8 -10 -11 -5 -3
-10 -1 -10 4 0 6 5 11 10 11 6 0 10 -2 10 -4z m566 -21 c-11 -8 -22 -12 -25
-9 -6 6 19 24 34 24 6 -1 1 -7 -9 -15z m28 -120 c16 -36 32 -65 35 -65 10 0
15 -46 16 -130 0 -41 5 -79 10 -83 6 -5 3 -7 -6 -4 -12 4 -18 -2 -22 -21 -8
-43 -35 -109 -59 -147 -25 -37 -55 -55 -93 -55 -25 0 -46 19 -23 21 10 0 10 2
1 6 -7 2 -13 16 -13 31 0 25 1 25 14 6 13 -17 14 -15 10 24 -5 40 6 56 21 31
5 -6 12 -4 21 8 22 30 17 51 -15 58 -19 4 -33 15 -39 33 -29 75 -21 110 19 96
31 -10 48 -7 79 18 30 24 41 49 27 66 -7 9 -13 9 -23 1 -10 -8 -14 -8 -14 -1
0 14 35 34 44 25 14 -15 4 42 -13 71 -27 45 -35 76 -19 76 7 0 26 -30 42 -65z
m-765 8 c-1 -38 -1 -38 -9 -9 -8 27 -6 46 6 46 2 0 4 -17 3 -37z m-18 -48 c5
4 9 1 9 -6 0 -7 7 -21 17 -31 22 -25 -2 -23 -27 2 -11 11 -19 30 -19 43 1 17
2 18 6 4 2 -9 9 -15 14 -12z m439 -4 c0 -5 -7 -12 -16 -15 -14 -5 -15 -4 -4 9
14 17 20 19 20 6z m-2 -33 c-2 -6 -15 -13 -29 -14 -23 -4 -23 -3 -5 11 24 18
39 19 34 3z m-83 -8 c3 -5 2 -10 -4 -10 -5 0 -13 5 -16 10 -3 6 -2 10 4 10 5
0 13 -4 16 -10z m-20 -20 c3 -5 1 -10 -4 -10 -6 0 -11 5 -11 10 0 6 2 10 4 10
3 0 8 -4 11 -10z m72 -77 c-3 -3 -11 -2 -17 2 -8 5 -7 11 2 22 12 15 13 14 16
-1 2 -10 1 -20 -1 -23z m-60 -49 c-3 -3 -12 -4 -19 -1 -8 3 -5 6 6 6 11 1 17
-2 13 -5z m203 -45 c0 -18 -18 -9 -23 12 -4 16 -3 18 9 8 8 -6 14 -15 14 -20z
m40 1 c0 -5 -2 -10 -4 -10 -3 0 -8 5 -11 10 -3 6 -1 10 4 10 6 0 11 -4 11 -10z
m-110 -60 c0 -5 -4 -10 -10 -10 -5 0 -10 5 -10 10 0 6 5 10 10 10 6 0 10 -4
10 -10z m417 -6 c-3 -3 -12 -4 -19 -1 -8 3 -5 6 6 6 11 1 17 -2 13 -5z m43
-38 c0 -14 -5 -28 -11 -32 -8 -4 -9 0 -4 15 5 15 2 21 -10 21 -9 0 -13 5 -10
10 12 20 35 10 35 -14z m-417 -41 c-3 -9 1 -15 9 -15 8 0 24 -14 37 -30 12
-17 26 -28 30 -25 5 3 12 -2 15 -11 9 -22 8 -24 -10 -24 -14 0 -14 -3 -4 -15
14 -17 46 -20 55 -4 4 6 13 8 21 5 8 -3 14 -1 14 3 0 5 6 11 14 14 11 4 13 -1
10 -21 -6 -36 -5 -95 2 -164 5 -52 10 -62 57 -108 29 -29 56 -49 64 -45 8 2
11 0 8 -5 -3 -6 -1 -10 4 -10 17 0 70 -80 64 -96 -4 -10 -14 -2 -35 27 -30 42
-98 79 -144 79 -14 0 -38 7 -53 15 -28 14 -41 11 -41 -8 0 -5 8 -7 18 -5 16 4
15 0 -6 -45 -14 -29 -20 -52 -14 -56 5 -3 12 -16 16 -28 7 -23 26 -32 26 -12
0 5 4 8 9 5 4 -3 19 4 32 15 20 17 32 20 72 14 32 -4 54 -2 63 6 11 9 14 8 14
-4 0 -8 4 -17 8 -19 10 -4 84 -104 103 -138 14 -26 21 -232 7 -224 -4 3 -14
-8 -22 -24 -15 -28 -77 -81 -155 -130 -29 -19 -46 -22 -89 -18 -36 3 -55 1
-58 -8 -2 -6 -16 -13 -31 -14 -14 -1 -32 -7 -39 -13 -11 -9 -14 -8 -14 2 0 11
-2 11 -10 -1 -14 -23 -62 10 -73 50 -8 34 5 93 28 120 20 24 35 90 35 158 0
50 -5 73 -26 108 -14 24 -35 49 -45 55 -19 10 -24 34 -13 63 3 9 9 14 13 12 4
-3 4 19 1 47 -6 50 -30 110 -49 121 -5 3 -12 31 -16 61 -6 50 -13 62 -59 111
-33 35 -58 53 -67 49 -8 -3 -24 4 -34 15 -57 61 -70 71 -87 67 -10 -3 -18 -1
-18 4 0 19 54 21 108 3 43 -15 56 -16 60 -6 3 9 7 10 17 2 10 -9 15 -6 21 12
7 22 7 22 14 3 8 -19 8 -19 15 -1 5 11 3 21 -6 26 -21 14 -2 25 39 22 28 -1
32 0 17 7 -11 4 -26 6 -32 4 -16 -6 -17 23 -1 33 6 4 8 3 5 -3 -4 -6 2 -13 13
-16 11 -3 23 -1 26 4 3 5 19 9 35 9 20 0 28 4 23 12 -4 7 -3 8 4 4 6 -4 9 -13
5 -21z m279 -147 c-7 -7 -12 -8 -12 -2 0 14 12 26 19 19 2 -3 -1 -11 -7 -17z
m98 -13 c-7 -9 -15 -13 -17 -11 -7 7 7 26 19 26 6 0 6 -6 -2 -15z m-34 -100
c-3 -9 -11 -13 -16 -10 -8 5 -7 11 1 21 14 18 24 11 15 -11z m-519 -52 c-10
-9 -14 -2 -21 37 l-6 35 17 -32 c9 -18 13 -36 10 -40z m36 -34 c-6 -6 -17 -8
-24 -3 -9 5 -8 9 7 14 23 9 31 3 17 -11z m33 -37 c-3 -2 -12 -2 -21 2 -13 5
-13 9 -3 26 13 20 13 20 21 -2 4 -11 5 -23 3 -26z m509 -21 c3 -5 1 -12 -5
-16 -5 -3 -10 1 -10 9 0 18 6 21 15 7z m-437 -342 c-3 -8 -7 -3 -11 10 -4 17
-3 21 5 13 5 -5 8 -16 6 -23z m712 -34 c-7 -9 -15 -13 -18 -10 -3 2 1 11 8 20
7 9 15 13 18 10 3 -2 -1 -11 -8 -20z m-714 -207 c-4 -41 -13 -67 -23 -75 -11
-8 -12 -13 -4 -13 7 0 9 -4 6 -10 -3 -5 -11 -10 -16 -10 -14 0 0 113 15 122 6
4 12 12 12 18 1 5 2 15 3 20 0 6 4 10 7 10 3 0 3 -28 0 -62z m464 -73 c0 -12
-7 -25 -15 -29 -9 -3 -15 0 -15 10 0 10 -6 14 -15 10 -21 -8 -19 4 6 25 26 22
39 17 39 -16z m-490 -60 c0 -8 -7 -15 -15 -15 -13 0 -14 3 -3 15 16 18 18 18
18 0z m-10 -39 c0 -3 -4 -8 -10 -11 -5 -3 -10 -1 -10 4 0 6 5 11 10 11 6 0 10
-2 10 -4z m46 -211 c3 -14 5 -60 3 -103 -3 -66 -8 -85 -34 -124 -30 -46 -82
-90 -143 -122 -39 -20 -133 -23 -189 -6 -44 13 -99 60 -72 60 12 0 12 2 0 9
-10 6 -2 8 22 6 21 -2 35 0 32 6 -4 5 2 9 11 9 16 0 16 1 1 18 -15 17 -14 18
13 20 16 1 31 -2 35 -8 3 -5 24 -10 46 -10 25 0 38 4 34 10 -12 19 5 48 30 53
14 2 25 0 25 -4 0 -15 47 -10 60 6 10 12 10 21 1 41 -12 27 -7 64 9 64 5 0 7
7 3 15 -3 10 6 27 23 45 33 34 51 38 57 13 4 -14 5 -12 6 5 1 30 19 28 27 -3z
m-156 -135 c0 -5 -5 -10 -11 -10 -5 0 -7 5 -4 10 3 6 8 10 11 10 2 0 4 -4 4
-10z m837 -57 c-3 -10 -5 -4 -5 12 0 17 2 24 5 18 2 -7 2 -21 0 -30z m-1312
-203 c3 -5 -1 -10 -10 -10 -9 0 -13 5 -10 10 3 6 8 10 10 10 2 0 7 -4 10 -10z
m109 -8 c2 -4 -7 -9 -22 -10 -21 -1 -24 0 -12 8 18 12 27 12 34 2z m-174 -16
c0 -3 -4 -8 -10 -11 -5 -3 -10 -1 -10 4 0 6 5 11 10 11 6 0 10 -2 10 -4z m40
-10 c0 -2 -7 -6 -15 -10 -8 -3 -15 -1 -15 4 0 6 7 10 15 10 8 0 15 -2 15 -4z
m115 -6 c3 -5 1 -10 -4 -10 -6 0 -11 5 -11 10 0 6 2 10 4 10 3 0 8 -4 11 -10z
m-157 -111 c-2 -6 -8 -10 -13 -10 -5 0 -11 4 -13 10 -2 6 4 11 13 11 9 0 15
-5 13 -11z m484 -41 c-7 -7 -12 -8 -12 -2 0 14 12 26 19 19 2 -3 -1 -11 -7
-17z m608 -362 c0 -3 -4 -8 -10 -11 -5 -3 -10 -1 -10 4 0 6 5 11 10 11 6 0 10
-2 10 -4z"/>
<path d="M8155 91540 c-16 -7 -17 -9 -3 -9 9 -1 20 4 23 9 7 11 7 11 -20 0z"/>
<path d="M7881 91264 c9 -9 25 -14 35 -12 14 3 10 7 -16 16 -32 12 -34 11 -19
-4z"/>
<path d="M7896 91231 c-4 -7 -5 -15 -2 -18 9 -9 19 4 14 18 -4 11 -6 11 -12 0z"/>
<path d="M7948 91203 c7 -3 16 -2 19 1 4 3 -2 6 -13 5 -11 0 -14 -3 -6 -6z"/>
<path d="M7990 91180 c0 -5 5 -10 10 -10 6 0 10 5 10 10 0 6 -4 10 -10 10 -5
0 -10 -4 -10 -10z"/>
<path d="M7925 91140 c-3 -5 -2 -10 4 -10 5 0 13 5 16 10 3 6 2 10 -4 10 -5 0
-13 -4 -16 -10z"/>
<path d="M7965 91140 c3 -5 8 -10 11 -10 2 0 4 5 4 10 0 6 -5 10 -11 10 -5 0
-7 -4 -4 -10z"/>
<path d="M8097 90713 c-4 -3 -7 -11 -7 -17 0 -6 5 -5 12 2 6 6 9 14 7 17 -3 3
-9 2 -12 -2z"/>
<path d="M8270 90580 c-14 -4 -20 -8 -14 -9 7 -1 14 -11 18 -23 5 -22 6 -22
20 -3 9 11 16 16 17 10 0 -5 3 -22 5 -37 3 -16 0 -28 -6 -28 -14 0 -13 -27 3
-33 9 -3 7 -10 -7 -25 -10 -12 -23 -19 -27 -16 -5 3 -9 -2 -9 -10 0 -21 12
-20 54 5 39 23 49 46 44 104 -2 30 -9 42 -33 56 -34 20 -32 20 -65 9z"/>
<path d="M8140 90560 c0 -5 5 -10 10 -10 6 0 10 5 10 10 0 6 -4 10 -10 10 -5
0 -10 -4 -10 -10z"/>
<path d="M8280 90505 c-8 -9 -8 -15 -2 -15 12 0 26 19 19 26 -2 2 -10 -2 -17
-11z"/>
<path d="M8150 90501 c0 -10 50 -25 58 -17 2 3 -7 10 -22 16 -33 12 -36 12
-36 1z"/>
<path d="M8431 90475 c-1 -11 -10 -40 -21 -64 -27 -59 -18 -64 10 -7 12 25 20
56 17 68 -4 20 -4 20 -6 3z"/>
<path d="M7970 90241 c0 -5 5 -13 10 -16 6 -3 10 -2 10 4 0 5 -4 13 -10 16 -5
3 -10 2 -10 -4z"/>
<path d="M7448 92533 c7 -3 16 -2 19 1 4 3 -2 6 -13 5 -11 0 -14 -3 -6 -6z"/>
<path d="M7495 92527 c-19 -15 -13 -37 11 -37 8 0 14 10 14 25 0 29 0 29 -25
12z"/>
<path d="M7725 92473 c-4 -36 -10 -61 -14 -54 -5 7 -14 3 -29 -14 -12 -14 -22
-29 -22 -34 0 -18 60 -53 98 -57 82 -10 125 -105 86 -190 -9 -21 -26 -52 -37
-68 -14 -19 -16 -30 -9 -35 8 -5 7 -21 -3 -55 -22 -74 -20 -86 14 -86 17 0 33
5 36 10 4 6 9 8 13 6 4 -2 16 2 27 10 21 15 28 73 10 87 -6 4 -1 14 12 25 12
9 25 31 29 47 16 70 94 185 125 185 5 0 9 6 9 14 0 16 65 63 125 91 42 21 74
63 86 113 17 72 18 72 -169 72 l-167 -1 -30 -66 c-16 -36 -31 -61 -33 -55 -2
6 8 33 22 61 14 28 26 53 26 56 0 3 -44 5 -99 5 l-99 0 -7 -67z m495 28 c0 -5
-7 -14 -15 -21 -16 -14 -18 -10 -9 14 6 17 24 22 24 7z m-75 -41 c-9 -16 -18
-30 -21 -30 -2 0 2 14 11 30 9 17 18 30 21 30 2 0 -2 -13 -11 -30z m-341 -35
c-4 -8 -10 -15 -15 -15 -4 0 -6 7 -3 15 4 8 10 15 15 15 4 0 6 -7 3 -15z m-28
-81 c-3 -8 -10 -12 -16 -9 -7 4 -6 14 2 28 12 24 24 8 14 -19z m210 1 c4 -8 3
-23 0 -32 -6 -15 -8 -15 -16 -3 -13 20 -12 50 0 50 6 0 13 -7 16 -15z m-46
-80 c0 -8 -4 -15 -10 -15 -5 0 -10 7 -10 15 0 8 5 15 10 15 6 0 10 -7 10 -15z
m-30 -221 c0 -20 -18 -17 -29 5 -9 16 -8 18 9 14 11 -3 20 -12 20 -19z"/>
<path d="M7356 92511 c-9 -10 -19 -42 -22 -72 -5 -55 -1 -53 27 17 9 22 18 30
28 26 11 -4 13 -1 8 12 -4 10 -7 22 -7 27 0 15 -16 10 -34 -10z"/>
<path d="M8370 92516 c0 -2 7 -6 15 -10 8 -3 15 -1 15 4 0 6 -7 10 -15 10 -8
0 -15 -2 -15 -4z"/>
<path d="M7563 92497 c3 -9 2 -19 -4 -23 -6 -3 -8 -13 -5 -21 3 -8 2 -12 -3
-9 -5 3 -12 -1 -15 -10 -4 -10 -2 -13 6 -8 8 5 9 2 5 -9 -11 -28 1 -19 18 13
18 35 19 66 3 76 -8 5 -9 2 -5 -9z"/>
<path d="M7311 92484 c0 -11 3 -14 6 -6 3 7 2 16 -1 19 -3 4 -6 -2 -5 -13z"/>
<path d="M7627 92493 c-4 -3 -7 -11 -7 -17 0 -6 5 -5 12 2 6 6 9 14 7 17 -3 3
-9 2 -12 -2z"/>
<path d="M7520 92461 c-11 -28 -14 -31 -22 -17 -7 13 -13 14 -30 5 -11 -6 -18
-7 -14 -1 3 5 -4 12 -16 15 -24 7 -41 -3 -20 -10 6 -3 9 -9 6 -15 -4 -7 6 -9
30 -6 28 3 40 0 47 -13 7 -14 3 -19 -21 -28 -17 -5 -30 -15 -30 -20 0 -6 -8
-11 -19 -11 -24 0 -22 -27 7 -67 12 -17 22 -35 22 -40 0 -4 -5 -1 -10 7 -8 13
-10 13 -10 -2 0 -9 4 -19 8 -22 17 -10 29 11 27 49 -4 53 -4 53 -19 32 -9 -12
-16 -14 -21 -7 -9 14 15 42 30 36 8 -3 11 2 8 13 -3 11 4 21 22 29 14 7 23 16
20 22 -3 5 2 21 11 34 9 14 14 31 11 38 -3 7 -11 -2 -17 -21z"/>
<path d="M7469 92413 c-13 -16 -12 -17 4 -4 16 13 21 21 13 21 -2 0 -10 -8
-17 -17z"/>
<path d="M5767 92393 c-4 -3 -7 -11 -7 -17 0 -6 5 -5 12 2 6 6 9 14 7 17 -3 3
-9 2 -12 -2z"/>
<path d="M5731 92354 c0 -11 3 -14 6 -6 3 7 2 16 -1 19 -3 4 -6 -2 -5 -13z"/>
<path d="M7385 92360 c3 -5 -1 -10 -9 -10 -22 0 -20 -17 3 -23 14 -3 19 1 19
19 0 13 -5 24 -10 24 -5 0 -6 -4 -3 -10z"/>
<path d="M7508 92333 c7 -3 16 -2 19 1 4 3 -2 6 -13 5 -11 0 -14 -3 -6 -6z"/>
<path d="M5800 92294 c0 -14 4 -23 10 -19 6 3 10 15 10 26 0 10 -4 19 -10 19
-5 0 -10 -12 -10 -26z"/>
<path d="M5675 92289 c-10 -29 -13 -79 -5 -79 3 0 11 23 16 50 10 49 2 70 -11
29z"/>
<path d="M7360 92300 c0 -6 7 -10 15 -10 8 0 15 2 15 4 0 2 -7 6 -15 10 -8 3
-15 1 -15 -4z"/>
<path d="M7681 92283 c0 -12 -8 -29 -17 -37 -8 -9 -11 -16 -6 -16 18 0 34 29
29 52 -4 22 -4 22 -6 1z"/>
<path d="M5700 92199 c0 -43 7 -76 21 -106 24 -49 39 -51 19 -3 -21 51 -3 46
22 -6 13 -26 30 -50 38 -52 12 -4 13 -2 3 10 -7 8 -20 31 -28 52 -15 36 -15
37 5 26 11 -6 20 -18 20 -28 0 -9 30 -44 66 -76 38 -34 74 -76 84 -100 17 -38
19 -39 19 -13 1 15 -8 45 -18 65 -10 20 -22 63 -26 95 -6 50 -10 57 -30 57
-12 0 -41 7 -64 15 -27 9 -41 10 -41 3 0 -22 -28 13 -34 43 -4 20 -11 29 -19
26 -8 -3 -13 4 -12 21 0 14 -6 27 -12 29 -10 4 -13 -12 -13 -58z"/>
<path d="M6038 92233 c-20 -5 -24 -39 -8 -63 8 -13 10 -13 10 2 0 9 3 18 8 21
4 2 1 2 -5 1 -7 -2 -13 4 -13 12 0 10 6 14 15 10 9 -3 15 0 15 9 0 8 -1 14 -2
14 -2 -1 -11 -3 -20 -6z"/>
<path d="M8066 92105 c-8 -8 -19 -15 -25 -15 -5 0 -13 -5 -17 -11 -10 -16 36
-1 65 22 17 14 19 19 8 19 -9 0 -22 -7 -31 -15z"/>
<path d="M7998 92103 c6 -2 18 -2 25 0 6 3 1 5 -13 5 -14 0 -19 -2 -12 -5z"/>
<path d="M8025 92050 c-3 -5 -1 -10 4 -10 6 0 11 5 11 10 0 6 -2 10 -4 10 -3
0 -8 -4 -11 -10z"/>
<path d="M7685 92040 c-27 -7 -28 -8 -5 -8 14 0 34 3 45 8 25 11 2 11 -40 0z"/>
<path d="M7771 91992 c-13 -25 -14 -32 -2 -32 9 0 23 41 16 48 -2 2 -8 -5 -14
-16z"/>
<path d="M8051 91984 c0 -11 3 -14 6 -6 3 7 2 16 -1 19 -3 4 -6 -2 -5 -13z"/>
<path d="M7963 91948 c-2 -5 9 -7 26 -6 17 1 31 6 31 10 0 10 -50 6 -57 -4z"/>
<path d="M7960 91906 c0 -13 8 -27 17 -30 10 -4 14 -4 10 0 -4 4 -2 14 5 21 9
11 9 17 -3 24 -22 14 -29 11 -29 -15z"/>
<path d="M8040 91880 c0 -5 5 -10 11 -10 5 0 7 5 4 10 -3 6 -8 10 -11 10 -2 0
-4 -4 -4 -10z"/>
<path d="M8096 91855 c-9 -23 -8 -25 9 -25 17 0 19 9 6 28 -7 11 -10 10 -15
-3z"/>
<path d="M8075 91790 c3 -5 8 -10 11 -10 2 0 4 5 4 10 0 6 -5 10 -11 10 -5 0
-7 -4 -4 -10z"/>
<path d="M7558 91753 c7 -3 16 -2 19 1 4 3 -2 6 -13 5 -11 0 -14 -3 -6 -6z"/>
<path d="M8030 91645 c0 -16 16 -20 24 -6 3 5 -1 11 -9 15 -9 3 -15 0 -15 -9z"/>
<path d="M5937 91560 c-10 -16 -14 -30 -10 -30 5 0 17 14 26 30 10 17 14 30
10 30 -5 0 -17 -13 -26 -30z"/>
<path d="M7545 91530 c3 -5 13 -10 21 -10 8 0 12 5 9 10 -3 6 -13 10 -21 10
-8 0 -12 -4 -9 -10z"/>
<path d="M7490 91520 c-8 -5 -10 -10 -5 -10 6 0 17 5 25 10 8 5 11 10 5 10 -5
0 -17 -5 -25 -10z"/>
<path d="M5869 91471 c-13 -10 -31 -21 -39 -24 -12 -4 -12 -6 2 -6 9 -1 30 10
45 24 33 29 27 34 -8 6z"/>
<path d="M7494 91456 c-18 -13 -17 -14 16 -12 19 1 41 -2 48 -7 19 -15 14 4
-5 19 -23 17 -35 17 -59 0z"/>
<path d="M7435 91430 c-3 -6 1 -7 9 -4 18 7 21 14 7 14 -6 0 -13 -4 -16 -10z"/>
<path d="M5514 91334 c-10 -8 -13 -12 -5 -8 7 3 17 0 22 -7 6 -10 9 -8 9 9 0
26 -1 26 -26 6z"/>
<path d="M5652 91290 c-18 -29 -15 -33 12 -13 13 10 22 21 19 26 -7 12 -18 8
-31 -13z"/>
<path d="M5566 91264 c-6 -24 -2 -44 8 -33 9 11 15 59 7 59 -5 0 -12 -12 -15
-26z"/>
<path d="M5599 91223 c-13 -17 -13 -17 6 -3 11 8 22 16 24 17 2 2 0 3 -6 3 -6
0 -17 -8 -24 -17z"/>
<path d="M7397 91220 c-3 -11 -2 -20 3 -20 12 0 31 26 23 33 -11 12 -21 7 -26
-13z"/>
<path d="M5825 91217 c-16 -13 -16 -14 -1 -20 10 -4 19 -1 23 9 8 21 -1 26
-22 11z"/>
<path d="M5735 91118 l-16 -33 20 25 c20 24 26 40 16 40 -2 0 -12 -15 -20 -32z"/>
<path d="M7770 90910 c0 -6 7 -13 15 -17 24 -9 27 1 5 15 -13 8 -20 8 -20 2z"/>
<path d="M7585 90830 c3 -5 14 -10 23 -10 15 0 15 2 2 10 -20 13 -33 13 -25 0z"/>
<path d="M6716 90670 c-16 -5 -38 -17 -50 -28 -19 -17 -43 -26 -126 -48 -35
-9 -98 -61 -115 -95 -8 -15 -15 -44 -15 -63 0 -33 4 -38 45 -57 25 -12 45 -27
45 -35 0 -8 10 -14 25 -14 30 0 30 -1 5 -73 -11 -31 -20 -63 -20 -72 0 -8 -12
-33 -26 -54 -43 -65 -54 -130 -54 -311 0 -91 -1 -183 -3 -205 -2 -34 1 -40 20
-43 32 -5 42 -21 69 -124 14 -51 37 -111 52 -132 23 -34 27 -49 27 -115 l0
-76 78 4 c70 3 81 1 98 -18 21 -22 54 -28 64 -11 8 12 155 13 155 1 0 -5 -13
-11 -30 -14 -21 -5 -30 -12 -30 -27 0 -24 0 -24 67 -3 30 9 65 28 79 41 26 27
34 52 9 32 -13 -11 -14 -10 -9 4 3 9 10 16 15 16 5 0 9 9 9 19 0 24 16 36 23
19 3 -7 6 -4 6 8 1 11 -5 26 -11 33 -11 10 -8 16 12 31 14 10 21 22 17 27 -9
9 -46 -35 -47 -54 0 -7 -11 -20 -24 -28 -19 -13 -23 -23 -21 -55 1 -22 -2 -40
-6 -40 -5 0 -9 -7 -9 -15 0 -19 -7 -19 -27 1 -11 11 -13 18 -5 23 23 14 1 48
-36 57 -32 8 -39 15 -54 57 -22 60 -31 230 -28 574 1 162 -2 243 -10 248 -15
9 -2 25 16 18 18 -7 93 72 94 99 0 19 -36 48 -62 48 -9 0 -24 -7 -33 -16 -9
-9 -17 -15 -19 -13 -5 6 -49 103 -50 111 -1 3 -4 9 -7 12 -3 4 -4 18 -1 31 3
18 14 27 41 35 20 5 43 10 52 10 41 0 48 61 20 158 -23 75 -36 92 -95 116 -42
17 -75 19 -120 6z m-166 -280 c0 -5 -2 -10 -4 -10 -3 0 -8 5 -11 10 -3 6 -1
10 4 10 6 0 11 -4 11 -10z"/>
<path d="M7835 90360 c3 -5 8 -10 11 -10 2 0 4 5 4 10 0 6 -5 10 -11 10 -5 0
-7 -4 -4 -10z"/>
<path d="M5820 90219 c-6 -11 -10 -25 -8 -30 2 -5 8 4 15 21 13 34 9 40 -7 9z"/>
<path d="M5801 90134 c0 -11 3 -14 6 -6 3 7 2 16 -1 19 -3 4 -6 -2 -5 -13z"/>
<path d="M5985 89720 c3 -5 18 -10 32 -10 32 0 28 5 -10 14 -19 4 -26 3 -22
-4z"/>
<path d="M5575 89660 c-3 -5 1 -10 10 -10 9 0 13 5 10 10 -3 6 -8 10 -10 10
-2 0 -7 -4 -10 -10z"/>
<path d="M5930 89630 c-6 -11 -8 -20 -6 -20 3 0 10 9 16 20 6 11 8 20 6 20 -3
0 -10 -9 -16 -20z"/>
<path d="M5521 89561 c-6 -11 -11 -22 -11 -25 0 -11 29 6 34 19 8 23 -12 28
-23 6z"/>
<path d="M5710 89560 c0 -5 5 -10 11 -10 5 0 7 5 4 10 -3 6 -8 10 -11 10 -2 0
-4 -4 -4 -10z"/>
<path d="M5870 89560 c0 -5 4 -10 9 -10 6 0 13 5 16 10 3 6 -1 10 -9 10 -9 0
-16 -4 -16 -10z"/>
<path d="M5677 89530 c7 -25 23 -37 23 -17 0 8 -6 20 -14 26 -12 10 -13 8 -9
-9z"/>
<path d="M6003 89488 c2 -22 13 -24 21 -2 8 21 8 21 -8 21 -8 0 -14 -9 -13
-19z"/>
<path d="M5574 89486 c-3 -9 -16 -16 -29 -16 -19 0 -22 -4 -17 -22 3 -14 2
-19 -6 -14 -8 5 -12 0 -12 -14 0 -12 10 -25 25 -32 26 -12 29 -28 7 -36 -7 -2
-10 2 -6 11 3 8 -2 17 -10 20 -12 5 -14 0 -9 -26 3 -18 9 -36 13 -42 4 -5 10
-29 13 -53 6 -52 7 -54 48 -58 18 -2 41 -11 51 -20 15 -14 18 -15 23 -2 6 15
65 21 65 6 0 -4 9 -8 19 -8 11 0 23 -9 26 -21 5 -14 13 -19 26 -16 10 3 22 1
25 -4 3 -5 -2 -9 -10 -9 -9 0 -16 -4 -16 -10 0 -24 92 -86 110 -75 6 4 13 -1
16 -9 3 -9 14 -16 24 -16 10 0 20 -6 23 -13 3 -9 16 -12 34 -10 15 3 41 0 57
-7 28 -10 28 -11 10 -25 -11 -8 -14 -14 -6 -15 6 0 12 -7 12 -16 0 -11 -6 -15
-20 -11 -11 3 -18 1 -14 -4 3 -5 15 -9 27 -10 21 0 21 -1 2 -9 -13 -5 22 -9
96 -9 109 -1 117 0 122 19 3 12 -3 30 -14 43 -10 12 -18 16 -19 9 0 -20 -32 2
-52 36 -10 16 -14 32 -10 36 4 4 -1 12 -10 17 -11 6 -20 28 -24 59 -4 28 -10
50 -15 50 -5 0 -6 7 -3 15 9 22 -5 18 -26 -7 l-17 -22 -7 22 c-4 12 -12 22
-18 22 -6 0 -8 9 -5 20 4 16 0 20 -19 20 -17 0 -25 7 -30 26 -5 18 -9 22 -15
13 -8 -13 6 -49 23 -60 5 -3 0 -9 -11 -12 -25 -6 -51 25 -51 60 0 12 -4 25
-10 28 -5 3 -10 30 -10 60 0 30 5 57 10 60 16 10 11 23 -12 31 -12 3 -31 15
-42 25 -11 11 -28 19 -38 19 -10 0 -18 5 -18 10 0 6 -10 10 -23 10 -24 0 -38
-18 -55 -75 -6 -21 -21 -36 -53 -52 -77 -38 -114 -25 -68 24 19 19 20 25 9 38
-7 9 -19 14 -26 11 -7 -3 -15 0 -18 7 -3 9 -8 8 -16 -3 -9 -12 -11 -10 -7 13
5 30 -10 48 -19 23z m321 -26 c3 -5 1 -10 -4 -10 -6 0 -11 5 -11 10 0 6 2 10
4 10 3 0 8 -4 11 -10z m-283 -112 c-9 -9 -15 -9 -24 0 -9 9 -7 12 12 12 19 0
21 -3 12 -12z m-51 -31 c-16 -16 -26 0 -10 19 9 11 15 12 17 4 2 -6 -1 -17 -7
-23z"/>
<path d="M7150 89312 c0 -4 9 -15 20 -25 24 -20 27 -6 4 17 -17 18 -24 20 -24
8z"/>
<path d="M6037 89259 c4 -15 8 -17 14 -8 8 14 3 29 -11 29 -4 0 -6 -9 -3 -21z"/>
<path d="M8695 89170 c-13 -15 -15 -24 -8 -31 19 -19 48 -6 51 24 4 33 -17 36
-43 7z"/>
<path d="M8715 89084 c-15 -12 -16 -18 -7 -21 10 -4 10 -9 -3 -23 -16 -18 -27
-95 -18 -130 3 -13 14 -20 29 -20 24 0 24 1 24 105 0 58 -1 105 -2 105 -2 0
-12 -8 -23 -16z"/>
<path d="M5740 88951 c-21 -11 -35 -26 -35 -37 0 -16 9 -19 69 -22 l69 -3 -16
25 c-9 14 -14 32 -11 40 9 23 -32 21 -76 -3z"/>
<path d="M6870 88960 c0 -5 5 -10 11 -10 5 0 7 5 4 10 -3 6 -8 10 -11 10 -2 0
-4 -4 -4 -10z"/>
<path d="M5950 88950 c0 -13 11 -13 30 0 12 8 11 10 -7 10 -13 0 -23 -4 -23
-10z"/>
<path d="M6730 88950 c-9 -6 -10 -10 -3 -10 6 0 15 5 18 10 8 12 4 12 -15 0z"/>
<path d="M5872 88918 c-16 -16 -15 -28 1 -28 7 0 13 9 13 20 0 11 -1 20 -1 20
-1 0 -6 -5 -13 -12z"/>
<path d="M5967 88915 c-7 -6 -19 -14 -27 -18 -8 -3 3 -6 26 -6 36 -1 64 12 64
30 0 11 -50 7 -63 -6z"/>
<path d="M5906 88903 c-6 -14 -5 -15 5 -6 7 7 10 15 7 18 -3 3 -9 -2 -12 -12z"/>
<path d="M6300 88906 c0 -11 8 -16 28 -15 15 0 21 3 12 6 -8 3 -21 10 -27 16
-9 7 -13 5 -13 -7z"/>
<path d="M6755 88905 c-25 -11 -27 -14 -9 -14 12 -1 27 6 34 14 15 18 14 18
-25 0z"/>
<path d="M6805 88910 c-3 -5 1 -10 9 -10 9 0 16 5 16 10 0 6 -4 10 -9 10 -6 0
-13 -4 -16 -10z"/>
<path d="M8560 88905 c0 -16 12 -18 48 -8 18 4 20 8 10 14 -22 14 -58 10 -58
-6z"/>
</g>
</svg>
