<?xml version="1.0" standalone="no"?>
<!DOCTYPE svg PUBLIC "-//W3C//DTD SVG 20010904//EN"
 "http://www.w3.org/TR/2001/REC-SVG-20010904/DTD/svg10.dtd">
<svg version="1.0" xmlns="http://www.w3.org/2000/svg"
 width="512.000000pt" height="512.000000pt" viewBox="0 0 512.000000 512.000000"
 preserveAspectRatio="xMidYMid meet">

<g transform="translate(0.000000,512.000000) scale(0.100000,-0.100000)"
fill="#000000" stroke="none">
<path d="M640 4926 c0 -136 3 -195 12 -204 9 -9 9 -12 -1 -12 -7 0 -9 -4 -6
-10 12 -20 34 -9 91 42 50 46 55 49 41 22 -13 -26 -14 -31 -1 -31 8 0 14 6 14
13 0 7 5 16 11 20 8 4 9 -1 4 -17 -5 -18 -4 -20 4 -9 14 21 25 5 12 -18 -18
-34 -13 -47 10 -26 11 10 18 26 16 36 -3 10 -1 18 4 18 11 0 58 74 71 114 6
17 17 38 24 46 11 14 8 15 -28 12 -27 -3 -38 -1 -34 6 4 6 14 8 22 5 14 -5 15
-3 4 16 -7 13 -17 20 -26 17 -8 -3 -14 -1 -14 4 0 6 -7 10 -16 10 -8 0 -13 -4
-10 -9 8 -12 -37 -22 -48 -11 -7 7 -2 10 13 10 12 0 19 4 16 10 -13 22 -46 10
-56 -20 -6 -16 -16 -30 -22 -30 -6 0 -21 -10 -34 -22 -25 -23 -29 -16 -10 18
20 36 72 73 116 83 53 11 87 34 110 72 l18 30 7 -39 c5 -32 11 -41 31 -46 35
-9 48 1 41 30 -6 22 7 34 17 17 2 -5 2 -3 1 4 -2 7 1 15 7 18 5 4 6 11 2 18
-4 7 -9 4 -14 -9 -7 -17 -8 -17 -8 -1 -1 16 -15 18 -196 17 l-195 -2 0 -192z
m240 -85 c0 -5 -9 -19 -21 -32 l-20 -24 17 33 c19 33 24 38 24 23z m-59 -44
c-10 -9 -11 -8 -5 6 3 10 9 15 12 12 3 -3 0 -11 -7 -18z"/>
<path d="M1308 5084 c-18 -20 -62 -51 -98 -70 -115 -59 -158 -99 -206 -194
-28 -54 -64 -107 -101 -145 -57 -58 -182 -164 -236 -200 l-27 -17 0 -2229 0
-2229 1188 0 1188 0 62 61 c34 33 69 73 76 88 14 25 13 31 -9 67 -20 31 -24
53 -24 109 0 126 27 197 124 319 25 33 25 13 0 -42 -48 -103 -45 -169 10 -215
22 -18 49 -29 81 -33 57 -7 60 -8 42 -24 -11 -11 -10 -21 9 -59 12 -25 25 -68
28 -96 4 -27 9 -58 11 -67 6 -20 -9 -53 -39 -85 l-20 -23 551 0 552 0 0 535
c0 533 0 535 -20 523 -22 -14 -26 -28 -8 -28 6 0 3 -9 -7 -20 -15 -17 -19 -38
-20 -108 -1 -114 -24 -167 -86 -201 -24 -13 -51 -30 -59 -36 -15 -13 -96 -43
-135 -51 -11 -2 -51 -18 -88 -35 l-68 -31 -106 21 c-79 16 -108 19 -114 10 -4
-6 -12 -8 -18 -5 -25 16 -174 -26 -231 -66 -21 -14 -33 -15 -70 -7 -25 6 -52
11 -60 12 -9 2 -21 7 -29 11 -8 5 -16 3 -22 -5 -12 -20 -21 -5 -26 43 -4 35 0
49 21 77 16 22 22 37 16 41 -7 4 -5 11 5 20 11 9 15 9 15 1 0 -9 6 -8 21 2 13
9 36 13 62 11 34 -3 37 -2 17 5 -22 8 -23 9 -5 11 65 8 135 -9 135 -32 0 -9
-3 -9 -12 0 -23 23 -29 12 -9 -15 13 -15 19 -34 16 -45 -4 -10 -2 -18 4 -18 6
0 11 5 11 11 0 5 5 7 11 4 12 -8 38 23 39 46 0 9 -6 22 -14 28 -12 10 -15 7
-19 -21 l-4 -33 -1 32 c-2 32 -25 54 -62 59 -8 1 -34 9 -57 17 -37 14 -44 14
-51 1 -6 -10 -17 -12 -40 -8 -18 4 -32 10 -32 14 0 9 38 42 85 71 22 14 58 37
81 51 66 42 151 61 246 56 52 -3 92 -10 108 -20 60 -38 210 -34 255 8 14 13
30 24 35 24 5 0 19 19 31 42 25 49 28 119 9 198 -17 69 -9 123 29 202 33 71
158 209 199 222 l22 7 0 1439 0 1440 -64 -36 c-54 -29 -73 -35 -113 -32 l-48
3 -23 -49 c-12 -27 -27 -70 -34 -95 -6 -25 -17 -53 -24 -62 -8 -8 -14 -20 -14
-25 -1 -18 -35 -52 -60 -58 -21 -6 -23 -5 -10 6 8 7 22 22 30 33 15 19 15 19
-13 2 -16 -10 -34 -16 -40 -14 -7 2 -24 -5 -39 -15 -16 -11 -28 -16 -28 -13 0
4 -16 -3 -35 -15 -19 -12 -43 -20 -52 -18 -25 4 -43 -10 -37 -26 3 -9 -8 -24
-29 -38 -30 -20 -33 -26 -25 -47 6 -17 5 -27 -3 -32 -8 -5 -8 -12 0 -25 10
-18 10 -18 11 4 0 12 5 22 11 22 6 0 9 -16 7 -37 -2 -21 6 -64 17 -96 18 -55
19 -60 3 -105 -9 -26 -19 -71 -23 -100 -4 -28 -11 -49 -16 -46 -5 3 -17 -3
-27 -12 -16 -17 -16 -18 1 -11 29 11 38 -2 21 -29 -12 -18 -20 -22 -29 -14 -9
8 -14 6 -18 -5 -4 -8 -13 -12 -22 -9 -19 8 -19 23 0 44 21 24 8 63 -19 56 -11
-3 -28 -6 -36 -6 -12 -1 -11 -3 3 -11 9 -5 21 -8 25 -5 4 2 14 1 21 -3 9 -6 6
-16 -14 -39 -24 -29 -65 -47 -50 -22 8 13 15 50 9 50 -2 0 -13 -9 -24 -20 -21
-21 -74 -27 -85 -11 -3 5 5 17 17 26 l23 17 -22 -7 c-14 -4 -23 -2 -23 5 0 6
-12 22 -26 35 -15 14 -22 25 -16 25 6 0 19 -11 30 -25 17 -22 21 -23 38 -10
19 14 18 14 -1 15 -20 1 -20 1 -1 15 26 19 36 19 36 -1 0 -12 4 -14 13 -7 6 6
28 13 47 17 25 4 39 14 47 33 16 34 10 39 -19 19 -12 -9 -30 -16 -40 -16 -9 0
-20 -4 -23 -10 -4 -6 7 -8 27 -5 26 4 29 3 13 -4 -11 -5 -30 -10 -42 -10 -34
-1 -18 25 28 46 28 13 41 26 46 45 3 16 10 25 16 21 6 -3 7 -1 3 5 -4 7 -21
12 -37 12 -18 0 -28 4 -24 10 3 6 4 10 1 10 -2 0 -11 -14 -20 -31 -14 -28 -14
-30 1 -25 13 5 14 4 3 -9 -7 -8 -21 -15 -31 -15 -10 0 -21 -5 -24 -10 -4 -6
-16 -8 -28 -5 -17 5 -18 4 -7 -4 10 -7 3 -10 -30 -13 -43 -3 -45 -4 -51 -40
-8 -49 -25 -68 -61 -68 -24 0 -29 4 -28 23 3 36 1 49 -9 43 -5 -3 -7 -24 -4
-46 5 -32 2 -40 -10 -40 -17 0 -32 -18 -23 -27 3 -3 11 -1 19 5 7 6 22 11 32
11 11 -1 30 2 43 6 17 6 22 3 22 -10 0 -11 5 -15 14 -12 31 12 4 -21 -35 -42
-45 -26 -47 -47 -3 -44 16 1 24 0 17 -3 -8 -4 -7 -12 4 -32 14 -24 14 -31 0
-62 l-15 -35 -2 40 c-1 22 -4 32 -7 23 -2 -10 -10 -18 -18 -18 -7 0 -18 -7
-25 -15 -7 -8 -16 -12 -21 -9 -16 10 -89 -19 -94 -38 -4 -10 -15 -18 -25 -18
-28 0 -53 -54 -48 -105 2 -37 1 -42 -11 -32 -12 10 -14 8 -8 -8 6 -18 5 -18
-12 3 -24 28 -35 29 -21 1 15 -27 5 -36 -16 -15 -23 23 -27 14 -9 -20 17 -34
64 -45 130 -31 84 18 105 19 105 8 0 -6 -10 -11 -22 -11 -13 0 -56 -11 -96
-25 -41 -14 -80 -25 -86 -25 -25 0 -76 32 -103 64 -16 18 -38 39 -50 45 -13 6
-23 16 -23 22 0 6 -7 17 -15 25 -23 23 -18 88 9 143 26 50 53 73 98 85 15 3
48 27 73 51 24 25 50 45 57 45 36 1 40 17 14 55 -14 21 -26 42 -26 48 0 5 -8
17 -18 26 -9 9 -18 30 -19 46 -1 17 1 22 3 13 3 -11 11 -15 21 -11 10 4 14 2
10 -4 -4 -6 0 -19 9 -28 9 -9 14 -19 10 -22 -10 -10 67 -43 87 -37 9 3 17 0
17 -6 0 -15 52 -8 58 8 2 7 -11 19 -30 27 -18 8 -28 15 -23 15 6 0 -1 10 -14
21 -17 14 -27 17 -35 9 -5 -5 -15 -10 -20 -10 -6 0 -2 7 8 15 16 12 17 17 6
30 -15 18 -34 20 -27 2 3 -8 -3 -14 -14 -14 -11 -1 -19 5 -19 13 0 13 13 21
65 39 20 7 20 7 0 15 -19 7 -19 7 1 18 16 8 22 7 31 -7 6 -10 22 -21 35 -24
21 -5 21 -5 6 7 -10 7 -18 18 -18 24 0 19 -49 26 -76 12 -13 -8 -27 -11 -30
-7 -11 11 7 28 47 44 21 8 39 20 39 26 0 7 4 7 12 -1 16 -16 28 -15 28 3 0 8
5 15 11 15 5 0 7 -4 4 -10 -3 -5 0 -7 8 -4 7 2 26 27 41 55 l27 50 -38 -5
c-21 -2 -51 -9 -66 -15 -18 -7 -26 -7 -22 -1 3 6 13 10 20 10 11 0 12 6 6 22
-5 15 -4 30 6 44 13 20 12 24 -12 42 -25 20 -25 21 -5 27 11 3 29 4 39 0 11
-3 22 -1 26 5 3 5 -1 10 -9 10 -9 0 -16 7 -16 15 0 15 10 19 43 16 9 -1 17 3
17 9 0 6 4 9 9 6 11 -7 36 22 27 31 -3 3 -6 1 -6 -6 0 -7 -5 -9 -10 -6 -6 4
-8 11 -5 16 4 5 2 9 -4 9 -5 0 -13 -5 -16 -10 -4 -6 -11 -8 -16 -5 -5 3 -6 -1
-3 -9 4 -12 0 -16 -16 -16 -16 0 -20 4 -16 15 3 8 2 15 -2 15 -15 0 -32 -24
-33 -45 0 -14 -2 -16 -6 -5 -3 8 -12 22 -20 32 -12 14 -18 14 -39 3 -24 -12
-64 -10 -64 4 0 4 5 12 12 19 9 9 6 12 -14 12 -15 0 -28 -5 -30 -12 -2 -6 -14
5 -25 25 -17 29 -27 36 -51 35 -16 -1 -35 3 -42 7 -7 4 -16 2 -22 -6 -7 -11
-8 -9 -4 5 4 11 1 23 -6 27 -7 4 -9 11 -5 16 4 4 17 2 27 -5 19 -12 19 -11 3
23 -10 21 -20 31 -24 24 -4 -8 -13 -3 -24 14 -15 23 -15 30 -1 78 9 29 16 70
16 91 0 20 11 63 25 94 14 31 25 68 25 81 0 18 4 24 15 19 9 -3 15 0 15 9 0 7
6 17 13 21 6 4 9 4 5 0 -4 -5 -1 -14 5 -21 9 -10 16 -9 35 3 34 22 46 4 27
-41 -8 -20 -15 -48 -15 -61 0 -20 -4 -24 -17 -19 -14 4 -15 3 -7 -6 14 -15 44
-3 37 15 -3 8 -1 14 4 14 5 0 10 -7 11 -15 1 -8 3 -22 4 -30 1 -8 5 -15 9 -15
5 0 6 13 3 30 -11 53 2 78 44 86 64 11 72 23 15 24 -39 0 -55 -4 -63 -17 -9
-14 -9 -11 -4 17 3 19 17 42 30 53 13 10 24 26 25 35 0 9 3 12 5 6 4 -8 14 -8
39 0 45 16 54 26 23 26 -16 0 -29 9 -38 25 -14 26 -20 86 -7 78 4 -2 7 10 7
27 0 17 -4 29 -9 26 -5 -4 -8 1 -7 9 2 15 13 30 24 30 4 1 17 4 30 9 32 11 27
28 -5 20 -27 -6 -27 -6 -11 11 12 13 30 18 63 17 39 -2 115 19 115 31 0 2 -65
5 -144 6 l-144 2 -53 -73 c-51 -71 -153 -178 -170 -178 -4 0 -15 -3 -25 -7
-28 -10 -10 52 26 94 35 40 37 54 9 79 -19 17 -22 18 -50 2 -30 -18 -42 -5
-17 20 7 7 8 12 2 12 -6 0 -23 -17 -37 -37 -18 -25 -27 -32 -27 -20 0 23 -17
22 -30 -3 -6 -11 -15 -19 -20 -17 -5 1 -16 -7 -25 -18 -9 -11 -14 -14 -10 -7
3 6 1 12 -4 12 -6 0 -11 -8 -11 -17 -1 -19 -23 -53 -34 -53 -4 0 -4 10 -1 23
5 17 4 19 -4 7 -6 -8 -11 -11 -11 -6 0 5 -6 3 -14 -3 -28 -24 -24 7 4 34 34
33 35 39 16 77 -9 16 -11 30 -5 33 5 4 9 15 9 26 0 18 -9 19 -224 19 -128 0
-227 -4 -231 -9 -3 -5 0 -30 7 -56 12 -44 11 -49 -20 -107 -24 -46 -29 -64
-22 -78 6 -10 10 -37 10 -59 0 -33 -7 -49 -35 -80 -19 -21 -35 -43 -35 -48 0
-24 -43 -44 -121 -58 -113 -21 -188 -45 -199 -65 -14 -27 -24 -94 -12 -86 17
11 20 -27 3 -59 -8 -16 -16 -34 -17 -40 -1 -5 -9 -37 -17 -70 -13 -56 -13 -63
4 -95 12 -22 36 -44 66 -60 25 -14 56 -37 66 -52 19 -25 28 -81 15 -93 -8 -9
-58 20 -54 31 2 6 0 17 -5 25 -5 8 -9 9 -9 3 0 -6 -11 -11 -25 -11 -15 0 -25
5 -25 14 0 8 -4 11 -10 8 -14 -9 -65 21 -84 49 -9 14 -16 45 -16 68 0 32 -5
46 -20 56 -29 18 -25 37 15 73 19 18 35 37 35 42 0 6 11 25 25 43 29 38 30 44
11 44 -8 0 -26 -16 -42 -35 -18 -23 -30 -31 -35 -24 -9 15 -31 -24 -24 -43 3
-8 -8 -24 -26 -37 l-31 -23 12 22 c8 15 9 25 2 32 -7 7 -17 -2 -32 -28 l-21
-39 5 35 5 35 -15 -34 c-20 -46 -28 -33 -9 14 20 47 12 58 -10 15 -9 -18 -14
-42 -11 -55 5 -21 10 -22 41 -15 25 6 33 5 28 -4 -11 -16 -3 -49 13 -61 8 -6
21 -22 27 -35 9 -16 20 -24 33 -22 15 2 16 1 5 -7 -12 -8 -12 -12 -2 -25 9
-11 11 -35 7 -79 -3 -36 -1 -79 4 -97 7 -25 6 -41 -6 -66 -16 -34 -13 -70 6
-59 5 3 10 0 11 -7 1 -25 8 -63 17 -108 8 -32 7 -51 -1 -66 -7 -12 -25 -46
-41 -75 -39 -73 -82 -126 -125 -154 -20 -12 -54 -39 -76 -59 -22 -20 -50 -36
-62 -36 -17 0 -23 -6 -23 -22 0 -14 -25 -52 -60 -91 -33 -38 -60 -75 -60 -83
0 -26 -29 -27 -64 -3 -30 21 -34 29 -39 83 -3 34 -2 82 2 107 10 61 58 154 89
175 27 18 86 22 143 10 35 -8 35 -8 49 36 7 23 20 56 27 71 11 22 12 32 2 43
-9 11 -8 14 4 14 9 0 19 5 22 10 4 6 3 10 -2 9 -40 -7 -43 13 -5 27 25 10 28
15 24 48 -2 21 -11 40 -18 43 -8 3 -14 11 -14 19 0 8 -19 27 -42 44 -22 16
-37 30 -33 30 4 0 -11 14 -34 31 -27 19 -41 36 -37 45 3 7 1 13 -5 11 -11 -2
-33 52 -43 107 -7 38 2 75 14 56 4 -7 7 12 6 41 -1 40 6 68 27 112 15 31 31
57 36 57 5 0 16 18 24 39 9 22 21 42 27 46 6 4 18 24 26 46 9 21 20 37 24 34
13 -8 20 22 14 63 -3 20 -1 48 4 62 9 24 9 24 16 3 4 -13 14 -21 26 -20 15 1
17 7 13 33 -3 19 0 34 7 39 9 5 11 4 6 -3 -4 -7 -1 -12 7 -12 8 0 18 10 22 23
3 12 8 17 11 11 3 -7 21 -3 52 12 26 13 60 24 75 24 19 0 26 4 21 12 -5 8 -2
9 10 5 27 -11 66 2 59 19 -3 8 -11 13 -17 11 -6 -2 -19 0 -29 5 -16 8 -14 12
20 35 21 14 41 30 44 35 4 5 17 15 29 21 37 19 100 144 97 192 l-2 40 -332 3
-332 2 -33 -36z m227 5 c11 -17 2 -18 -19 -3 -17 12 -17 14 -4 14 9 0 20 -5
23 -11z m227 -21 c-6 -6 -16 -7 -23 -3 -9 6 -7 12 7 22 21 15 34 -1 16 -19z
m1675 26 c-3 -3 -12 -4 -19 -1 -8 3 -5 6 6 6 11 1 17 -2 13 -5z m-147 -57 c0
-2 -10 -12 -22 -23 l-23 -19 19 23 c18 21 26 27 26 19z m-30 -60 c0 -2 -10
-12 -22 -23 l-23 -19 19 23 c18 21 26 27 26 19z m-1530 -53 c0 -3 -11 -19 -25
-36 -29 -34 -32 -29 -8 13 16 26 33 38 33 23z m950 -23 c0 -10 -7 -35 -15 -55
-8 -20 -15 -39 -15 -43 0 -5 -4 -9 -10 -9 -5 -1 -14 -2 -20 -3 -13 -1 -13 -31
0 -31 5 0 7 -7 3 -16 -5 -13 -7 -13 -14 -2 -6 9 -9 7 -9 -9 0 -12 6 -24 13
-26 9 -4 9 -8 -2 -15 -7 -5 -10 -16 -7 -23 4 -8 -1 -4 -12 8 -16 18 -19 36
-18 94 2 71 2 72 45 110 49 44 61 48 61 20z m155 -31 c-10 -11 -22 -17 -28
-13 -5 3 1 12 14 19 33 18 35 17 14 -6z m365 10 c0 -5 -4 -10 -10 -10 -5 0 -9
-3 -9 -7 3 -20 -2 -31 -17 -37 -8 -3 -12 -2 -9 4 3 6 2 10 -3 10 -10 0 -24
-25 -26 -44 -1 -5 -7 -11 -15 -14 -24 -8 -2 41 35 76 34 32 54 41 54 22z
m-450 -8 c0 -5 -7 -9 -15 -9 -8 0 -15 4 -15 9 0 4 7 8 15 8 8 0 15 -4 15 -8z
m-1190 -21 c-12 -23 -29 -35 -37 -27 -7 7 26 46 39 46 5 0 4 -9 -2 -19z m1226
-16 c-11 -8 -23 -15 -28 -15 -4 0 -8 -5 -8 -11 0 -6 -9 -22 -20 -36 -12 -16
-18 -34 -14 -47 4 -16 -4 -31 -27 -54 -34 -34 -51 -40 -46 -19 1 6 -3 11 -10
10 -7 -2 -10 4 -7 12 7 18 24 20 24 3 0 -6 2 -9 5 -6 3 3 1 16 -4 29 -6 17 -5
28 5 37 15 13 17 6 16 -43 -1 -11 5 -1 13 22 7 22 23 51 36 64 14 14 18 24 11
27 -17 5 9 29 39 35 13 2 26 5 29 5 3 1 -4 -5 -14 -13z m-1636 -4 c0 -6 -4
-13 -10 -16 -5 -3 -10 1 -10 9 0 9 5 16 10 16 6 0 10 -4 10 -9z m1399 -56
c-11 -38 -9 -73 6 -110 8 -18 7 -18 -8 -6 -11 8 -17 28 -17 53 0 24 -4 37 -10
33 -5 -3 -10 -4 -10 0 0 7 44 74 47 71 1 -1 -2 -19 -8 -41z m632 8 c-17 -24
-31 -30 -31 -13 0 6 5 10 11 10 6 0 9 6 6 13 -3 7 3 13 13 13 17 0 17 -2 1
-23z m-171 -17 c0 -8 -11 -28 -25 -44 -14 -17 -25 -34 -25 -40 0 -5 -7 -15
-15 -22 -20 -17 -19 -32 3 -28 11 2 16 -2 13 -12 -3 -8 -5 -25 -5 -37 -1 -11
-4 -19 -8 -17 -12 7 -24 -60 -23 -126 2 -124 4 -140 19 -140 8 0 18 -9 21 -20
3 -11 11 -20 16 -20 6 0 8 -4 5 -8 -3 -5 15 -28 40 -53 24 -24 42 -50 39 -57
-3 -7 2 -20 10 -28 8 -9 18 -27 22 -42 12 -49 40 -44 42 8 1 13 0 13 -9 0 -8
-12 -10 -11 -10 8 0 40 33 10 37 -34 2 -21 9 -44 15 -51 7 -9 6 -20 -8 -40
-11 -17 -19 -23 -22 -15 -2 7 4 22 13 32 17 18 16 20 -9 31 -32 15 -41 8 -27
-19 17 -31 13 -66 -12 -124 -41 -93 -43 -261 -2 -291 6 -5 5 -12 -5 -20 -8 -7
-16 -19 -18 -27 -5 -21 -74 -110 -82 -105 -4 2 -19 -8 -33 -23 -30 -32 -61
-109 -46 -117 5 -4 5 -13 0 -23 -12 -24 -3 -79 22 -134 18 -39 27 -47 50 -48
19 0 31 -7 39 -25 6 -14 23 -27 39 -30 16 -4 29 -10 29 -15 0 -11 67 -33 79
-26 5 3 28 -1 51 -9 53 -19 86 -19 44 -1 -51 22 -49 34 4 24 26 -5 57 -9 69
-9 30 1 133 -38 133 -50 0 -5 6 -9 14 -9 17 0 56 -46 56 -66 0 -8 -6 -14 -13
-14 -9 0 -12 -10 -9 -30 4 -28 22 -43 22 -18 0 6 3 9 6 6 3 -4 6 -10 5 -15 0
-4 9 -18 20 -29 13 -14 17 -24 10 -29 -6 -3 -8 -17 -5 -31 3 -13 1 -31 -6 -39
-15 -18 -3 -38 20 -32 24 6 30 -22 20 -88 -4 -27 -8 -44 -9 -37 0 7 -6 10 -12
6 -14 -8 -3 -85 13 -95 13 -8 12 -103 -1 -107 -5 -2 -7 -12 -4 -23 6 -22 -11
-92 -38 -157 -10 -23 -14 -42 -9 -42 6 0 10 -11 10 -25 0 -14 6 -25 13 -25 8
0 7 -4 -3 -10 -8 -5 -10 -10 -4 -10 20 0 2 -54 -27 -81 -15 -15 -26 -29 -23
-31 5 -6 -63 -63 -110 -92 -34 -21 -140 -34 -150 -18 -4 7 4 14 19 18 54 13
20 34 -56 34 -54 0 -91 -15 -157 -66 -65 -50 -95 -99 -88 -146 5 -29 3 -36 -8
-32 -14 6 -51 -60 -42 -75 3 -5 -3 -29 -14 -52 -20 -45 -28 -87 -11 -60 16 25
19 -4 5 -44 -19 -54 -18 -55 17 -43 16 6 33 7 37 4 3 -4 -3 -9 -15 -12 l-21
-6 20 -34 c16 -28 18 -43 12 -91 -8 -73 -22 -100 -73 -146 -32 -29 -46 -53
-66 -114 -17 -52 -39 -95 -66 -128 -49 -60 -110 -117 -117 -111 -7 7 -36 -32
-63 -83 -12 -24 -36 -51 -53 -60 -16 -9 -71 -56 -121 -104 -56 -56 -109 -97
-140 -112 -27 -12 -57 -25 -65 -29 -21 -10 -56 -30 -71 -42 -42 -32 -200 -55
-287 -41 -83 14 -195 88 -177 118 6 8 4 10 -5 4 -7 -4 -15 -3 -19 2 -3 5 -29
23 -57 41 -36 23 -71 35 -127 43 -67 10 -83 16 -119 49 -27 24 -43 46 -43 61
0 16 -7 25 -20 27 -11 2 -33 22 -49 44 -23 32 -31 56 -34 102 -3 34 -10 64
-16 68 -7 5 -2 15 13 32 15 16 28 49 37 98 8 40 18 74 24 76 13 5 13 82 0 82
-5 0 -10 -8 -10 -17 -1 -17 -1 -17 -10 -1 -7 11 -7 26 0 43 6 15 11 57 12 93
1 60 -2 74 -37 135 -36 66 -38 71 -32 139 5 59 12 80 42 125 20 29 50 63 68
73 20 12 26 20 15 20 -11 0 -15 6 -11 19 3 13 11 17 24 14 10 -3 26 0 34 7 12
10 15 9 15 -4 0 -11 9 -16 26 -16 30 0 84 -35 84 -55 0 -17 78 -30 111 -20 13
4 45 23 71 41 42 28 46 33 28 39 -32 10 -24 22 19 29 57 9 100 -20 136 -90 16
-31 34 -58 41 -61 7 -3 19 -26 27 -51 38 -123 49 -172 44 -191 -3 -12 -1 -24
4 -27 13 -8 16 48 6 128 -2 20 0 41 4 45 10 10 -10 83 -23 83 -4 0 -8 6 -8 13
0 7 -11 29 -24 48 -14 20 -28 48 -32 63 -9 36 -60 79 -114 95 -58 17 -91 32
-112 50 -20 16 -25 36 -6 25 7 -4 8 -3 4 5 -4 6 -11 9 -16 6 -13 -8 -59 52
-88 115 -27 56 -33 117 -20 178 5 21 4 31 -2 27 -20 -12 -9 20 35 106 52 103
68 185 41 204 -9 7 -16 17 -14 21 6 24 -15 54 -38 54 -13 0 -24 6 -25 13 0 16
-57 60 -79 62 -10 1 -26 8 -36 16 -16 13 -16 12 -5 -9 7 -14 18 -21 27 -18 8
3 14 -1 14 -9 0 -8 6 -15 13 -15 7 0 18 -9 25 -21 12 -19 11 -20 -15 -17 -16
2 -27 8 -25 16 1 6 -4 12 -11 12 -18 0 -60 48 -76 88 -13 31 -39 48 -28 17 9
-22 -11 -28 -22 -7 -10 20 -9 47 2 58 4 4 7 18 7 31 0 13 4 22 9 19 5 -3 12 2
16 12 7 16 8 15 15 -3 5 -13 7 -2 5 30 -1 27 4 69 11 93 7 23 11 49 7 57 -3 8
2 26 11 40 9 14 14 30 11 36 -10 14 51 103 91 134 18 14 34 32 34 39 0 17 38
50 77 67 17 7 29 17 27 21 -3 4 3 19 12 33 10 16 20 22 24 15 10 -16 33 16 60
83 22 53 26 57 49 52 23 -5 29 1 51 47 22 47 29 53 59 56 19 2 40 -3 49 -11
47 -41 152 -39 238 3 74 37 117 79 104 100 -8 12 -11 12 -27 -2 -10 -8 -29
-21 -42 -28 l-23 -12 18 25 c11 14 21 24 24 22 3 -2 6 7 7 18 1 12 4 33 6 47
2 14 5 29 6 33 0 5 6 5 11 2 10 -6 15 13 11 53 -1 12 3 22 9 22 5 0 10 18 10
40 0 22 4 40 10 40 5 0 16 16 25 35 9 19 23 39 31 46 8 6 14 17 14 23 0 6 9
19 20 28 30 27 121 88 130 88 4 0 5 11 2 25 -2 14 -9 25 -14 25 -6 0 -8 12 -5
29 3 15 2 32 -3 37 -12 12 18 101 36 108 9 3 12 1 9 -4 -3 -6 1 -7 10 -4 10 4
13 13 10 24 -3 10 -1 21 5 25 5 3 10 1 10 -4 0 -18 18 -13 25 7 6 17 68 68
135 109 19 12 35 25 35 30 0 12 80 83 93 83 12 0 75 40 110 70 28 24 42 25 42
6z m-1715 -41 c-39 -30 -46 -23 -9 9 16 13 31 22 34 20 2 -3 -9 -16 -25 -29z
m285 15 c0 -5 -5 -10 -11 -10 -5 0 -7 5 -4 10 3 6 8 10 11 10 2 0 4 -4 4 -10z
m977 -32 c-3 -8 -6 -5 -6 6 -1 11 2 17 5 13 3 -3 4 -12 1 -19z m-1601 -113
c-9 -9 -16 -23 -16 -31 0 -8 -4 -14 -10 -14 -14 0 -13 6 6 47 11 22 20 31 27
24 6 -6 4 -15 -7 -26z m1659 15 c-3 -5 -14 -10 -23 -10 -15 0 -15 2 -2 10 20
13 33 13 25 0z m-1508 -92 c-2 -18 -4 -6 -4 27 0 33 2 48 4 33 2 -15 2 -42 0
-60z m940 -14 c9 -23 -13 -40 -32 -24 -12 10 -13 16 -4 26 15 18 28 18 36 -2z
m-977 -50 c0 -8 -4 -14 -10 -14 -5 0 -10 9 -10 21 0 11 5 17 10 14 6 -3 10
-13 10 -21z m306 0 c-4 -9 -9 -15 -11 -12 -3 3 -3 13 1 22 4 9 9 15 11 12 3
-3 3 -13 -1 -22z m559 -14 c-5 -8 -11 -8 -17 -2 -6 6 -7 16 -3 22 5 8 11 8 17
2 6 -6 7 -16 3 -22z m-776 -62 c0 -38 -1 -40 -10 -19 -8 22 -4 61 7 61 2 0 4
-19 3 -42z m235 -3 c-4 -8 -8 -15 -10 -15 -2 0 -4 7 -4 15 0 8 4 15 10 15 5 0
7 -7 4 -15z m496 -50 c0 -8 -7 -15 -15 -15 -9 0 -12 6 -9 15 4 8 10 15 15 15
5 0 9 -7 9 -15z m4 -110 c-18 -27 -34 -25 -34 6 0 14 7 19 25 19 25 0 25 -1 9
-25z m176 -44 c0 -33 -12 -81 -21 -81 -15 0 -21 44 -10 73 12 31 31 36 31 8z
m1060 -49 c-1 -14 -40 43 -40 58 0 8 9 0 20 -18 11 -18 20 -36 20 -40z m78 30
c6 -18 -15 -14 -22 4 -4 10 -1 14 6 12 6 -2 14 -10 16 -16z m-2368 -24 c0 -36
-4 -35 -14 5 -4 16 -2 27 4 27 5 0 10 -14 10 -32z m2483 -35 c-7 -2 -13 -11
-13 -19 0 -9 -5 -12 -10 -9 -13 8 6 35 24 34 7 0 6 -2 -1 -6z m-1013 -57 c0
-3 -4 -8 -10 -11 -5 -3 -10 -1 -10 4 0 6 5 11 10 11 6 0 10 -2 10 -4z m1719
-67 c-22 -14 -33 -10 -19 6 7 8 17 12 22 9 6 -4 5 -10 -3 -15z m151 7 c0 -7
-68 -44 -88 -48 -25 -4 -26 7 -4 31 14 17 92 31 92 17z m-1933 -28 c-3 -8 -6
-5 -6 6 -1 11 2 17 5 13 3 -3 4 -12 1 -19z m1783 -48 c0 -5 -4 -10 -10 -10 -5
0 -10 5 -10 10 0 6 5 10 10 10 6 0 10 -4 10 -10z m-2250 -10 c0 -5 -5 -10 -11
-10 -5 0 -7 5 -4 10 3 6 8 10 11 10 2 0 4 -4 4 -10z m1554 -3 c14 -10 15 -14
4 -14 -7 0 -19 6 -26 14 -7 7 -9 13 -4 13 4 0 16 -6 26 -13z m-1534 -32 c9
-11 9 -19 2 -28 -7 -8 -7 -17 1 -27 13 -17 57 -24 57 -9 0 5 -8 9 -18 9 -29 0
-21 36 10 48 33 12 38 0 6 -16 -18 -8 -19 -11 -5 -11 9 -1 17 -6 17 -12 0 -8
5 -8 15 1 8 7 13 15 11 19 -3 4 4 12 15 19 31 20 24 -19 -9 -51 -22 -21 -27
-34 -24 -56 4 -31 1 -35 -42 -45 -22 -6 -27 -4 -23 7 3 8 -7 40 -23 71 -27 52
-27 56 -9 56 10 0 19 5 19 10 0 6 -7 10 -15 10 -8 0 -15 5 -15 10 0 15 16 12
30 -5z m2146 -10 c-11 -8 -22 -12 -25 -9 -6 6 19 24 34 24 6 -1 1 -7 -9 -15z
m28 -120 c16 -36 32 -65 35 -65 10 0 15 -46 16 -130 0 -41 5 -78 10 -82 6 -5
3 -8 -6 -8 -9 0 -19 -10 -22 -22 -30 -128 -93 -206 -158 -196 -19 2 -24 10
-27 43 -3 38 -3 39 12 20 14 -19 14 -17 10 23 -5 40 6 56 21 31 5 -6 12 -4 21
8 22 30 17 51 -15 58 -19 4 -33 15 -39 33 -29 75 -21 110 19 96 13 -4 30 -7
38 -5 28 5 71 45 71 66 0 29 -10 37 -27 24 -9 -8 -13 -8 -13 -1 0 14 35 34 44
25 12 -13 -1 54 -16 77 -24 38 -32 70 -16 70 7 0 26 -30 42 -65z m-765 8 c-1
-38 -1 -38 -9 -9 -8 27 -6 46 6 46 2 0 4 -17 3 -37z m-1669 0 c0 -5 -5 -15
-10 -23 -7 -12 -9 -10 -7 8 1 19 17 33 17 15z m2090 -52 c0 -5 -7 -12 -16 -15
-14 -5 -15 -4 -4 9 14 17 20 19 20 6z m-105 -61 c3 -5 1 -10 -4 -10 -6 0 -11
5 -11 10 0 6 2 10 4 10 3 0 8 -4 11 -10z m-2385 -149 c0 -3 -5 -13 -10 -21
-15 -24 -32 2 -24 35 7 26 8 27 20 10 8 -11 14 -21 14 -24z m2397 23 c-3 -3
-12 -4 -19 -1 -8 3 -5 6 6 6 11 1 17 -2 13 -5z m-32 -14 c3 -5 1 -10 -4 -10
-6 0 -11 5 -11 10 0 6 2 10 4 10 3 0 8 -4 11 -10z m277 -15 c-2 -14 -8 -23
-12 -20 -10 6 -1 45 10 45 4 0 5 -11 2 -25z m-42 -16 c0 -18 -18 -9 -23 12 -4
16 -3 18 9 8 8 -6 14 -15 14 -20z m-70 -59 c0 -5 -4 -10 -10 -10 -5 0 -10 5
-10 10 0 6 5 10 10 10 6 0 10 -4 10 -10z m417 -6 c-3 -3 -12 -4 -19 -1 -8 3
-5 6 6 6 11 1 17 -2 13 -5z m43 -38 c0 -14 -5 -28 -11 -32 -8 -4 -9 0 -4 15 5
15 2 21 -10 21 -9 0 -13 5 -10 10 12 20 35 10 35 -14z m-415 -36 c-4 -13 -2
-20 7 -20 8 0 24 -14 37 -30 12 -17 26 -28 30 -25 5 3 12 -2 15 -11 9 -22 8
-24 -10 -24 -14 0 -14 -3 -4 -15 14 -17 46 -20 55 -4 4 5 12 8 18 6 7 -2 20 5
29 16 18 20 18 19 13 -14 -11 -67 -1 -198 17 -232 14 -28 90 -92 105 -90 8 0
12 -1 9 -4 -3 -3 5 -14 17 -23 30 -25 57 -73 48 -88 -5 -8 -15 0 -32 25 -37
59 -165 108 -204 79 -17 -13 -48 -96 -36 -96 5 0 12 -11 15 -25 6 -24 26 -36
26 -15 0 6 7 10 16 10 8 0 23 7 31 16 13 13 28 15 66 10 32 -5 54 -3 63 5 11
9 14 8 14 -4 0 -8 4 -17 8 -19 17 -6 101 -128 111 -161 11 -35 10 -208 -1
-201 -4 3 -14 -8 -22 -24 -14 -27 -75 -79 -148 -126 -38 -24 -91 -36 -112 -24
-10 6 -16 5 -16 -2 0 -5 -5 -10 -11 -10 -5 0 -7 6 -4 13 4 6 1 5 -7 -3 -7 -8
-22 -16 -33 -18 -11 -2 -27 -6 -35 -9 -30 -12 -45 -12 -72 -1 -20 10 -28 21
-32 53 -7 41 0 63 41 140 9 17 19 64 21 106 4 66 1 83 -19 124 -13 26 -34 55
-47 63 -20 13 -23 21 -17 46 21 105 19 122 -19 178 -13 20 -27 59 -31 88 -6
44 -15 60 -59 106 -34 36 -57 53 -67 49 -14 -5 -69 38 -69 55 0 11 -50 31 -61
25 -5 -4 -9 -2 -9 4 0 21 52 24 108 5 43 -15 56 -16 60 -6 3 9 7 10 17 2 10
-9 15 -6 21 12 7 22 7 22 14 3 8 -19 8 -19 15 -1 5 11 3 21 -6 26 -21 14 -2
25 39 22 28 -1 32 0 17 7 -11 4 -26 6 -32 4 -16 -6 -17 23 -1 33 6 4 8 3 5 -3
-4 -6 2 -13 13 -16 11 -3 23 -1 26 4 3 5 19 9 35 9 18 0 28 4 24 10 -3 6 -1
10 5 10 7 0 9 -8 5 -20z m277 -152 c-7 -7 -12 -8 -12 -2 0 6 3 14 7 17 3 4 9
5 12 2 2 -3 -1 -11 -7 -17z m98 -13 c-7 -9 -15 -13 -17 -11 -7 7 7 26 19 26 6
0 6 -6 -2 -15z m-3300 -75 c0 -5 -4 -10 -10 -10 -5 0 -10 5 -10 10 0 6 5 10
10 10 6 0 10 -4 10 -10z m3266 -25 c-3 -9 -11 -13 -16 -10 -8 5 -7 11 1 21 14
18 24 11 15 -11z m-519 -52 c-10 -9 -14 -2 -21 37 l-6 35 17 -32 c9 -18 13
-36 10 -40z m-2296 -16 c-1 -4 -1 -14 -1 -23 0 -8 -4 -12 -10 -9 -13 8 -13 48
1 43 6 -2 10 -7 10 -11z m2331 -19 c-9 -9 -15 -9 -24 0 -9 9 -7 12 12 12 19 0
21 -3 12 -12z m34 -36 c-3 -2 -12 -2 -21 2 -13 5 -13 9 -3 26 13 20 13 20 21
-2 4 -11 5 -23 3 -26z m509 -21 c3 -5 1 -12 -5 -16 -5 -3 -10 1 -10 9 0 18 6
21 15 7z m-3198 -199 c-10 -10 -17 -24 -17 -30 0 -6 -5 -14 -10 -17 -7 -4 -8
3 -4 22 9 38 13 43 31 43 15 0 14 -2 0 -18z m353 -31 c0 -11 10 -28 23 -38 12
-10 22 -24 23 -30 1 -7 2 -19 3 -27 0 -8 10 -17 20 -21 27 -8 32 -28 16 -59
-8 -14 -11 -26 -8 -26 11 0 32 35 33 53 0 17 20 25 20 8 0 -15 33 -22 41 -9 7
10 12 9 26 -5 17 -17 16 -17 -25 -14 -34 3 -45 -1 -56 -18 -13 -20 -12 -21 7
-21 12 1 25 5 29 11 4 5 11 -2 17 -17 5 -14 15 -29 20 -33 6 -3 11 -14 11 -23
0 -11 -8 -5 -21 16 -25 38 -34 37 -20 -1 6 -16 7 -29 1 -32 -5 -3 -19 -26 -32
-51 -12 -26 -28 -49 -35 -51 -7 -3 -13 -11 -13 -18 0 -8 -8 -13 -17 -12 -33 2
-73 -33 -73 -64 0 -15 -4 -30 -9 -34 -6 -3 -8 10 -5 32 2 21 1 32 -2 25 -3 -7
-17 -25 -30 -39 -21 -23 -22 -28 -10 -42 8 -9 16 -36 18 -61 1 -25 8 -49 13
-53 6 -5 4 -7 -5 -4 -8 2 -15 10 -15 18 0 7 -9 15 -19 17 -18 4 -19 3 -3 -13
9 -9 17 -21 17 -26 0 -5 6 -9 14 -9 7 0 27 -7 42 -15 16 -8 39 -15 50 -15 12
0 25 -7 28 -16 5 -12 10 -13 19 -6 7 6 22 9 32 7 11 -2 22 -4 25 -4 2 -1 -1
-6 -8 -13 -7 -7 -12 -17 -12 -22 0 -6 4 -5 9 2 11 19 64 24 57 6 -3 -7 3 -19
13 -26 9 -7 20 -21 24 -31 4 -9 18 -22 32 -27 15 -6 23 -15 20 -21 -4 -5 1
-19 11 -30 9 -10 14 -19 9 -19 -4 0 3 -9 16 -20 21 -17 21 -19 4 -13 -11 3
-26 10 -32 16 -9 6 -13 6 -13 -1 0 -6 5 -14 10 -17 6 -4 7 -11 4 -17 -4 -6 -2
-8 4 -5 5 4 18 4 27 1 16 -7 16 -8 -1 -17 -14 -8 -23 -4 -42 18 -23 28 -25 28
-38 10 -12 -17 -14 -17 -14 -2 0 9 5 17 11 17 6 0 9 10 7 22 -3 25 -45 40
-115 42 -38 0 -41 2 -28 17 21 22 19 26 -15 32 -19 4 -40 0 -58 -10 -28 -16
-31 -16 -56 0 -30 20 -68 89 -60 110 5 14 -31 57 -48 57 -4 0 -8 12 -8 26 0
14 -4 23 -9 20 -5 -4 -19 10 -31 29 -12 19 -26 35 -32 35 -6 0 -8 9 -5 20 3
11 2 20 -3 20 -13 0 8 73 24 85 8 6 18 23 21 38 4 14 13 31 21 38 8 6 14 25
14 41 0 23 4 28 18 24 25 -8 140 100 124 116 -7 7 -12 20 -12 30 0 10 -4 18
-10 18 -11 0 -14 123 -3 133 12 13 23 7 23 -12z m3120 -146 c-7 -9 -15 -13
-18 -10 -3 2 1 11 8 20 7 9 15 13 18 10 3 -2 -1 -11 -8 -20z m-710 -160 c0 -8
-4 -15 -10 -15 -5 0 -7 7 -4 15 4 8 8 15 10 15 2 0 4 -7 4 -15z m-6 -57 c-3
-18 -7 -39 -8 -46 -1 -8 -9 -18 -17 -23 -12 -7 -12 -9 1 -9 10 0 11 -3 3 -11
-6 -6 -9 -17 -7 -24 3 -7 1 -16 -4 -19 -6 -4 -9 23 -7 71 4 71 12 92 38 93 4
0 5 -15 1 -32z m469 -68 c-6 -24 -33 -35 -33 -14 0 10 -6 14 -15 10 -21 -8
-18 4 7 25 25 22 49 10 41 -21z m-503 -94 c0 -3 -4 -8 -10 -11 -5 -3 -10 -1
-10 4 0 6 5 11 10 11 6 0 10 -2 10 -4z m-2290 -42 c0 -8 -5 -12 -10 -9 -6 4
-8 11 -5 16 9 14 15 11 15 -7z m47 -25 c-3 -11 2 -19 14 -22 11 -3 19 -13 19
-24 0 -14 -2 -15 -9 -4 -7 11 -10 10 -13 -5 -3 -16 -7 -13 -21 14 -10 17 -22
32 -27 32 -5 0 -7 6 -4 14 8 21 46 16 41 -5z m-77 -40 c0 -6 -4 -7 -10 -4 -5
3 -10 11 -10 16 0 6 5 7 10 4 6 -3 10 -11 10 -16z m-565 -51 c-17 -23 -17 -23
-10 12 10 46 19 60 23 33 2 -13 -4 -33 -13 -45z m335 12 c0 -5 -5 -10 -11 -10
-5 0 -7 5 -4 10 3 6 8 10 11 10 2 0 4 -4 4 -10z m2640 -40 c-6 -11 -13 -20
-16 -20 -2 0 0 9 6 20 6 11 13 20 16 20 2 0 0 -9 -6 -20z m-43 -31 c5 -17 6
-64 2 -104 -8 -108 -61 -179 -177 -239 -39 -20 -133 -23 -189 -6 -44 13 -99
60 -72 60 12 0 11 2 -1 10 -11 7 -5 9 23 6 21 -3 35 -1 32 5 -4 5 2 9 11 9 16
0 16 1 1 18 -15 17 -14 18 13 20 16 1 31 -2 35 -8 3 -5 21 -10 39 -10 29 0 34
4 39 29 4 20 13 30 31 33 15 3 26 1 26 -3 0 -15 47 -10 60 6 13 15 4 59 -10
50 -5 -3 -4 8 1 25 6 16 15 30 20 30 4 0 6 7 2 15 -3 10 6 27 23 45 31 32 49
37 57 18 3 -8 6 -6 6 5 1 28 20 19 28 -14z m-2499 -39 c8 -16 11 -34 8 -39 -4
-5 6 -19 20 -30 29 -23 25 -28 -8 -10 -29 16 -64 109 -40 109 4 0 13 -13 20
-30z m2342 -90 c0 -5 -5 -10 -11 -10 -5 0 -7 5 -4 10 3 6 8 10 11 10 2 0 4 -4
4 -10z m837 -57 c-3 -10 -5 -4 -5 12 0 17 2 24 5 18 2 -7 2 -21 0 -30z m-1067
-59 c0 -2 -9 0 -20 6 -11 6 -20 13 -20 16 0 2 9 0 20 -6 11 -6 20 -13 20 -16z
m-1757 -17 c-3 -5 -10 -4 -15 1 -6 6 -7 16 -3 22 6 9 9 9 16 -1 4 -7 5 -17 2
-22z m-473 -56 c0 -5 -7 -14 -15 -21 -16 -14 -18 -10 -9 14 6 17 24 22 24 7z
m1985 -71 c3 -6 -4 -10 -17 -10 -18 0 -20 2 -8 10 19 12 18 12 25 0z m111 -12
c4 -7 3 -8 -4 -4 -8 5 -12 0 -12 -13 0 -12 -5 -21 -11 -21 -6 0 -9 7 -5 15 3
10 -1 15 -12 15 -15 0 -15 2 -2 10 20 13 37 12 46 -2z m-176 -12 c0 -3 -4 -8
-10 -11 -5 -3 -10 -1 -10 4 0 6 5 11 10 11 6 0 10 -2 10 -4z m30 -16 c-8 -5
-17 -7 -19 -4 -3 3 1 9 9 14 8 5 17 7 19 4 3 -3 -1 -9 -9 -14z m-30 -115 c-12
-15 -30 -12 -30 6 0 5 10 9 21 9 18 0 19 -2 9 -15z m-2197 -15 c-3 -10 -12
-25 -21 -32 -13 -11 -12 -8 2 20 19 36 27 41 19 12z m2679 -22 c-7 -7 -12 -8
-12 -2 0 14 12 26 19 19 2 -3 -1 -11 -7 -17z m-2641 -29 c-9 -22 -10 -22 -10
-3 -1 11 2 24 6 27 12 12 14 0 4 -24z m29 -9 c0 -5 -4 -10 -10 -10 -5 0 -10 5
-10 10 0 6 5 10 10 10 6 0 10 -4 10 -10z m3220 -324 c0 -3 -4 -8 -10 -11 -5
-3 -10 -1 -10 4 0 6 5 11 10 11 6 0 10 -2 10 -4z m-1250 -336 c0 -5 -4 -10
-10 -10 -5 0 -10 5 -10 10 0 6 5 10 10 10 6 0 10 -4 10 -10z m301 -111 c-5
-13 -10 -19 -10 -12 -1 15 10 45 15 40 3 -2 0 -15 -5 -28z m-341 -9 c-24 -15
-37 -11 -16 5 11 8 22 12 25 9 3 -3 -1 -9 -9 -14z m651 -46 c26 5 28 4 19 -13
-8 -16 -16 -18 -46 -11 -20 5 -44 16 -53 25 -15 14 -13 15 17 4 18 -6 46 -9
63 -5z m-181 -39 c0 -8 -2 -15 -4 -15 -2 0 -6 7 -10 15 -3 8 -1 15 4 15 6 0
10 -7 10 -15z m74 -47 c11 -10 37 -18 56 -19 31 -1 32 -2 10 -8 -40 -11 -71 0
-91 33 -10 17 -19 36 -19 41 0 6 6 1 12 -10 6 -11 20 -28 32 -37z m57 12 c9 0
19 7 23 15 3 8 10 15 16 15 6 0 3 -11 -6 -25 -22 -34 -54 -32 -90 6 l-29 31
35 -21 c19 -11 42 -21 51 -21z m-101 -15 c7 -9 8 -15 2 -15 -5 0 -12 7 -16 15
-3 8 -4 15 -2 15 2 0 9 -7 16 -15z m-1743 -101 c-3 -3 -12 -4 -19 -1 -8 3 -5
6 6 6 11 1 17 -2 13 -5z m-713 -38 c70 -29 87 -102 37 -158 -73 -82 -203 6
-156 105 12 26 54 60 83 66 1 1 18 -5 36 -13z m213 -68 c-3 -8 -6 -5 -6 6 -1
11 2 17 5 13 3 -3 4 -12 1 -19z m20 0 c-3 -8 -6 -5 -6 6 -1 11 2 17 5 13 3 -3
4 -12 1 -19z m1474 -11 c-10 -9 -11 -8 -5 6 3 10 9 15 12 12 3 -3 0 -11 -7
-18z m-561 -117 c0 -5 -4 -10 -10 -10 -5 0 -10 5 -10 10 0 6 5 10 10 10 6 0
10 -4 10 -10z"/>
<path d="M1555 3187 c-16 -13 -16 -14 -1 -20 10 -4 19 -1 23 9 8 21 -1 26 -22
11z"/>
<path d="M1465 3088 l-16 -33 20 25 c20 24 26 40 16 40 -2 0 -12 -15 -20 -32z"/>
<path d="M3508 2868 c5 -5 16 -8 23 -6 8 3 3 7 -10 11 -17 4 -21 3 -13 -5z"/>
<path d="M3315 2800 c3 -5 14 -10 23 -10 15 0 15 2 2 10 -20 13 -33 13 -25 0z"/>
<path d="M2446 2640 c-15 -5 -37 -17 -48 -26 -20 -19 -82 -44 -109 -44 -27 0
-108 -58 -129 -92 -11 -18 -20 -50 -20 -70 0 -35 3 -40 45 -59 25 -12 45 -27
45 -35 0 -8 10 -14 25 -14 30 0 30 -1 5 -73 -11 -31 -20 -63 -20 -71 0 -9 -13
-36 -30 -62 -40 -64 -50 -123 -50 -309 0 -88 -1 -178 -3 -200 -2 -34 1 -40 20
-43 32 -5 42 -21 69 -124 14 -51 37 -111 52 -132 23 -34 27 -49 27 -115 l0
-76 79 3 c69 3 80 1 97 -17 21 -22 54 -28 64 -11 3 6 40 10 81 10 43 0 74 -4
74 -10 0 -5 8 -10 18 -10 14 0 15 2 2 10 -11 8 -12 12 -3 18 23 15 3 48 -35
58 -32 8 -39 15 -54 57 -22 58 -29 219 -28 573 1 165 -2 244 -9 249 -16 9 -3
25 15 18 10 -4 28 8 50 33 46 54 52 74 24 96 -28 22 -54 23 -75 1 -14 -14 -18
-14 -26 -2 -5 8 -9 17 -9 22 0 4 -11 30 -25 59 -22 46 -23 54 -11 74 10 14 29
24 60 28 50 8 61 18 65 62 3 36 -24 138 -45 171 -16 26 -96 63 -133 62 -14 0
-39 -5 -55 -9z"/>
<path d="M3565 2330 c3 -5 8 -10 11 -10 2 0 4 5 4 10 0 6 -5 10 -11 10 -5 0
-7 -4 -4 -10z"/>
<path d="M1550 2189 c-6 -11 -10 -25 -8 -30 2 -5 8 4 15 21 13 34 9 40 -7 9z"/>
<path d="M1531 2104 c0 -11 3 -14 6 -6 3 7 2 16 -1 19 -3 4 -6 -2 -5 -13z"/>
<path d="M1715 1690 c3 -5 18 -10 32 -10 32 0 28 5 -10 14 -19 4 -26 3 -22 -4z"/>
<path d="M1660 1600 c-6 -11 -8 -20 -6 -20 3 0 10 9 16 20 6 11 8 20 6 20 -3
0 -10 -9 -16 -20z"/>
<path d="M1252 1529 c-7 -10 -12 -21 -12 -24 0 -10 29 7 34 20 8 23 -9 26 -22
4z"/>
<path d="M1440 1530 c0 -5 5 -10 11 -10 5 0 7 5 4 10 -3 6 -8 10 -11 10 -2 0
-4 -4 -4 -10z"/>
<path d="M1605 1530 c-3 -5 -2 -10 4 -10 5 0 13 5 16 10 3 6 2 10 -4 10 -5 0
-13 -4 -16 -10z"/>
<path d="M1407 1500 c7 -25 23 -37 23 -17 0 8 -6 20 -14 26 -12 10 -13 8 -9
-9z"/>
<path d="M1733 1458 c2 -22 13 -24 21 -2 8 21 8 21 -8 21 -8 0 -14 -9 -13 -19z"/>
<path d="M1304 1456 c-3 -9 -16 -16 -29 -16 -19 0 -22 -4 -17 -22 3 -14 2 -19
-6 -14 -8 5 -12 0 -12 -13 0 -12 3 -21 8 -21 19 -1 42 -29 36 -44 -3 -9 -10
-14 -15 -11 -4 3 -6 12 -2 20 3 9 -1 15 -9 15 -10 0 -13 -9 -10 -30 2 -17 8
-33 13 -36 5 -3 9 -20 10 -37 0 -36 11 -69 22 -68 4 1 8 1 10 0 1 0 13 -3 26
-5 14 -2 33 -12 43 -21 17 -15 18 -15 18 2 0 13 5 16 25 11 17 -4 25 -2 25 6
1 8 6 6 14 -4 7 -10 20 -18 29 -18 9 0 19 -9 22 -21 5 -16 12 -19 31 -15 14 4
24 2 24 -4 0 -5 -7 -10 -15 -10 -8 0 -15 -4 -15 -10 0 -5 5 -10 11 -10 5 0 8
-4 5 -8 -2 -4 10 -17 27 -29 45 -31 67 -38 67 -22 0 7 7 3 16 -9 8 -12 24 -22
35 -22 10 0 18 -5 17 -12 -2 -8 9 -11 34 -9 20 1 46 -3 58 -9 21 -11 21 -12 3
-25 -10 -9 -13 -14 -5 -15 19 0 14 -30 -5 -31 -12 -1 -9 -4 7 -9 24 -7 23 -7
-12 -15 -21 -4 -38 -12 -38 -17 0 -6 11 -7 28 -3 35 10 73 8 87 -6 7 -7 5 -8
-6 -4 -10 4 -19 0 -22 -9 -4 -9 -18 -16 -32 -16 -14 0 -34 -11 -47 -25 -24
-28 -40 -33 -32 -10 4 8 1 15 -5 15 -6 0 -11 -11 -11 -25 0 -14 5 -25 10 -25
21 0 10 -39 -12 -42 -18 -2 -22 -9 -20 -28 3 -24 2 -24 -13 -6 -18 23 -19 36
-4 36 8 0 8 4 0 14 -9 10 -9 21 1 42 10 22 10 28 0 32 -7 2 -10 8 -7 13 7 11
-12 49 -25 49 -6 0 -10 -19 -10 -42 0 -39 -1 -40 -15 -22 -8 10 -15 27 -15 37
0 9 -4 17 -8 17 -12 0 -52 -39 -52 -50 0 -6 -5 -10 -10 -10 -13 0 1 27 28 55
19 20 19 20 0 47 -10 15 -17 33 -16 40 4 20 -63 13 -79 -8 -7 -10 -13 -14 -13
-9 0 5 -5 4 -11 -2 -7 -7 -8 -22 -1 -44 10 -36 3 -56 -31 -91 -18 -18 -20 -19
-37 -3 -20 18 -40 13 -40 -10 0 -18 45 -49 59 -41 14 9 41 -4 41 -19 0 -16 12
-25 41 -30 33 -7 68 -33 89 -67 19 -32 17 -55 -9 -75 -14 -10 -13 -11 6 -6 28
7 73 -4 73 -17 0 -6 -8 -10 -17 -10 -16 -1 -16 -2 2 -16 14 -11 34 -14 63 -11
39 4 45 2 65 -25 27 -37 67 -58 104 -57 26 1 25 2 -9 11 -20 5 -55 26 -78 45
-41 35 -41 36 -21 54 25 24 47 24 60 2 6 -10 10 -13 10 -8 0 21 -28 47 -44 41
-9 -3 -14 -2 -10 3 3 5 0 11 -6 13 -14 5 0 38 17 38 8 0 14 -4 14 -10 0 -5 6
-10 14 -10 8 0 24 -12 35 -27 11 -16 21 -22 21 -14 0 11 17 12 88 7 80 -6 88
-5 99 13 11 17 10 19 -2 15 -10 -4 -13 0 -10 18 6 28 31 48 62 48 21 0 23 4
23 51 0 69 39 101 76 64 9 -8 24 -15 34 -15 10 0 21 -7 24 -16 4 -12 14 -15
34 -10 15 3 22 3 15 0 -15 -7 -1 -58 18 -62 18 -3 73 99 59 108 -15 9 -2 36
23 48 12 5 38 17 57 27 l35 16 -32 -5 c-45 -7 -42 11 2 20 19 3 38 11 41 16
11 18 -4 19 -35 4 -16 -9 -38 -16 -47 -16 -9 0 -22 -7 -28 -15 -8 -12 -37 -17
-110 -21 -101 -5 -150 1 -126 16 8 5 -7 14 -41 25 -30 10 -59 22 -66 27 -7 6
-13 4 -16 -4 -2 -7 -3 -5 -1 5 1 9 -6 27 -17 40 -10 12 -18 17 -19 10 0 -7 -6
-10 -14 -7 -20 8 -50 55 -49 77 1 9 -2 15 -7 12 -10 -6 -30 49 -30 86 0 16 -4
29 -10 29 -5 0 -7 7 -4 15 9 22 -5 18 -26 -7 l-17 -22 -7 22 c-4 12 -12 22
-18 22 -6 0 -8 9 -5 20 4 16 0 20 -19 20 -17 0 -25 7 -30 26 -5 18 -9 22 -14
13 -9 -14 8 -59 23 -59 15 0 -1 -14 -18 -16 -19 -3 -45 33 -45 61 0 12 -4 25
-9 31 -5 5 -11 37 -13 72 -2 34 -1 57 2 51 5 -7 9 -5 13 5 4 11 -1 18 -18 22
-13 3 -31 14 -41 25 -9 10 -25 19 -36 19 -10 0 -18 5 -18 10 0 6 -10 10 -23
10 -24 0 -38 -19 -54 -75 -14 -47 -132 -98 -146 -62 -3 6 -6 2 -6 -10 -1 -16
-5 -21 -16 -16 -9 3 -25 -3 -35 -12 -11 -10 -23 -15 -28 -11 -4 4 3 16 16 26
12 10 21 24 19 32 -2 7 -2 10 0 6 8 -14 40 -8 67 13 29 23 34 39 10 39 -9 0
-12 5 -8 12 5 7 2 9 -9 5 -9 -3 -18 -1 -21 6 -3 9 -8 8 -16 -3 -9 -12 -11 -10
-7 13 5 30 -10 48 -19 23z m326 -37 c0 -6 -4 -7 -10 -4 -5 3 -10 11 -10 16 0
6 5 7 10 4 6 -3 10 -11 10 -16z m-265 -39 c3 -5 1 -10 -4 -10 -6 0 -11 5 -11
10 0 6 2 10 4 10 3 0 8 -4 11 -10z m-31 -116 c3 -8 2 -12 -4 -9 -6 3 -10 10
-10 16 0 14 7 11 14 -7z m1016 -509 c0 -2 -7 -5 -15 -9 -9 -3 -15 0 -15 9 0 9
6 12 15 9 8 -4 15 -7 15 -9z m-135 -5 c-3 -5 -11 -10 -16 -10 -6 0 -7 5 -4 10
3 6 11 10 16 10 6 0 7 -4 4 -10z m52 -6 c-3 -3 -12 -4 -19 -1 -8 3 -5 6 6 6
11 1 17 -2 13 -5z m-490 -84 c12 0 29 -7 37 -15 12 -13 20 -14 37 -4 19 10 21
9 16 -5 -3 -8 -1 -19 6 -23 8 -5 1 -10 -18 -13 -19 -4 -34 -1 -40 7 -15 19
-55 25 -48 7 8 -22 -28 -30 -43 -9 -18 24 -18 49 -1 39 7 -5 6 0 -3 11 -14 17
-13 18 10 12 14 -4 35 -7 47 -7z m-87 -55 c0 -8 -6 -15 -13 -15 -8 0 -14 7
-14 15 0 8 6 15 14 15 7 0 13 -7 13 -15z m241 -25 c10 0 19 -4 19 -8 0 -4 -16
-6 -35 -4 -19 2 -35 9 -35 14 0 6 7 7 16 4 9 -3 24 -6 35 -6z m-221 -30 c-8
-5 -24 -10 -35 -10 -17 0 -17 2 -5 10 8 5 24 10 35 10 17 0 17 -2 5 -10z m-27
-67 c-7 -2 -21 -2 -30 0 -10 3 -4 5 12 5 17 0 24 -2 18 -5z"/>
<path d="M2880 1284 c0 -5 9 -17 20 -27 11 -9 20 -13 20 -8 0 4 -9 16 -20 26
-11 10 -20 14 -20 9z"/>
<path d="M2846 1235 c-9 -13 -16 -29 -16 -34 0 -6 -11 -18 -24 -26 -19 -13
-23 -23 -21 -55 1 -22 -2 -40 -6 -40 -5 0 -8 -6 -6 -12 1 -9 -13 -13 -45 -13
-49 0 -80 -17 -62 -35 23 -23 164 49 164 84 0 5 -7 1 -15 -10 -13 -17 -14 -17
-15 -2 0 9 6 21 14 25 8 4 16 17 18 28 2 11 10 19 16 18 16 -4 15 20 0 36 -11
10 -9 16 10 28 22 16 29 33 13 33 -5 0 -16 -11 -25 -25z"/>
<path d="M1767 1229 c4 -15 8 -17 14 -8 8 14 3 29 -11 29 -4 0 -6 -9 -3 -21z"/>
<path d="M2600 930 c0 -5 5 -10 11 -10 5 0 7 5 4 10 -3 6 -8 10 -11 10 -2 0
-4 -4 -4 -10z"/>
<path d="M1698 923 c7 -3 16 -2 19 1 4 3 -2 6 -13 5 -11 0 -14 -3 -6 -6z"/>
<path d="M2461 921 c-8 -5 -9 -11 -3 -15 5 -3 12 1 16 9 6 17 6 18 -13 6z"/>
<path d="M1726 892 c-43 -5 -80 -52 -41 -52 9 0 12 -6 9 -17 -5 -15 -4 -15 4
-3 6 8 8 18 6 22 -3 4 6 12 19 17 23 9 44 29 36 34 -2 2 -17 1 -33 -1z"/>
<path d="M1597 883 c-11 -11 -8 -20 7 -20 8 0 12 6 9 14 -6 15 -7 15 -16 6z"/>
<path d="M2535 880 c-3 -5 1 -10 9 -10 9 0 16 5 16 10 0 6 -4 10 -9 10 -6 0
-13 -4 -16 -10z"/>
<path d="M1201 684 c0 -11 3 -14 6 -6 3 7 2 16 -1 19 -3 4 -6 -2 -5 -13z"/>
<path d="M2210 661 c0 -12 5 -21 10 -21 6 0 10 6 10 14 0 8 -4 18 -10 21 -5 3
-10 -3 -10 -14z"/>
<path d="M1430 603 c14 -9 28 -21 32 -27 4 -6 10 -8 13 -4 7 7 -43 48 -59 48
-6 0 1 -8 14 -17z"/>
<path d="M1485 610 c3 -5 11 -10 16 -10 6 0 7 5 4 10 -3 6 -11 10 -16 10 -6 0
-7 -4 -4 -10z"/>
<path d="M2410 604 c0 -8 5 -12 10 -9 6 3 10 10 10 16 0 5 -4 9 -10 9 -5 0
-10 -7 -10 -16z"/>
<path d="M2476 611 c-4 -5 3 -7 14 -4 23 6 26 13 6 13 -8 0 -17 -4 -20 -9z"/>
<path d="M1510 560 c0 -11 7 -20 15 -20 17 0 18 2 9 24 -9 23 -24 20 -24 -4z"/>
<path d="M2372 506 c-24 -30 -23 -36 5 -35 15 0 22 3 14 6 -10 4 -8 9 9 18 22
12 22 12 2 17 -12 3 -25 1 -30 -6z"/>
<path d="M1495 480 c4 -6 11 -8 16 -5 14 9 11 15 -7 15 -8 0 -12 -5 -9 -10z"/>
<path d="M1940 470 c0 -5 7 -10 16 -10 8 0 12 5 9 10 -3 6 -10 10 -16 10 -5 0
-9 -4 -9 -10z"/>
<path d="M2015 470 c-3 -6 1 -7 9 -4 18 7 21 14 7 14 -6 0 -13 -4 -16 -10z"/>
<path d="M1850 430 c0 -6 7 -10 15 -10 8 0 15 2 15 4 0 2 -7 6 -15 10 -8 3
-15 1 -15 -4z"/>
<path d="M1700 421 c0 -5 5 -13 10 -16 6 -3 10 -2 10 4 0 5 -4 13 -10 16 -5 3
-10 2 -10 -4z"/>
<path d="M1950 399 c0 -5 5 -7 10 -4 6 3 10 8 10 11 0 2 -4 4 -10 4 -5 0 -10
-5 -10 -11z"/>
<path d="M2075 400 c-11 -17 5 -32 21 -19 7 6 11 15 8 20 -7 12 -21 11 -29 -1z"/>
<path d="M3885 3510 c-16 -7 -17 -9 -3 -9 9 -1 20 4 23 9 7 11 7 11 -20 0z"/>
<path d="M3611 3234 c9 -9 25 -14 35 -12 14 3 10 7 -16 16 -32 12 -34 11 -19
-4z"/>
<path d="M3620 3190 c0 -5 5 -10 10 -10 6 0 10 5 10 10 0 6 -4 10 -10 10 -5 0
-10 -4 -10 -10z"/>
<path d="M3720 3150 c0 -5 5 -10 10 -10 6 0 10 5 10 10 0 6 -4 10 -10 10 -5 0
-10 -4 -10 -10z"/>
<path d="M3660 3110 c-9 -6 -10 -10 -3 -10 6 0 15 5 18 10 8 12 4 12 -15 0z"/>
<path d="M3834 2879 c-9 -16 2 -22 21 -11 15 8 16 10 1 15 -8 3 -18 2 -22 -4z"/>
<path d="M4000 2550 c-14 -4 -20 -8 -14 -9 7 -1 14 -11 17 -23 l6 -21 20 24
c28 35 20 45 -29 29z"/>
<path d="M3870 2530 c0 -5 5 -10 10 -10 6 0 10 5 10 10 0 6 -4 10 -10 10 -5 0
-10 -4 -10 -10z"/>
<path d="M4046 2532 c-3 -5 -3 -21 0 -36 3 -16 -1 -35 -7 -43 -10 -12 -10 -16
1 -23 12 -7 11 -12 -4 -29 -10 -11 -23 -18 -27 -15 -5 3 -9 -2 -9 -10 0 -9 5
-16 10 -16 14 0 62 30 78 49 15 19 16 103 0 119 -14 14 -35 16 -42 4z"/>
<path d="M4010 2475 c-8 -9 -8 -15 -2 -15 12 0 26 19 19 26 -2 2 -10 -2 -17
-11z"/>
<path d="M3880 2471 c0 -10 50 -25 58 -17 2 3 -7 10 -22 16 -33 12 -36 12 -36
1z"/>
<path d="M4149 2412 c-9 -26 -19 -56 -23 -67 -4 -11 1 -6 12 10 18 26 41 105
31 105 -2 0 -11 -22 -20 -48z"/>
<path d="M3705 2200 c3 -5 8 -10 11 -10 2 0 4 5 4 10 0 6 -5 10 -11 10 -5 0
-7 -4 -4 -10z"/>
<path d="M1219 2243 c-13 -16 -12 -17 4 -4 9 7 17 15 17 17 0 8 -8 3 -21 -13z"/>
<path d="M1165 2179 c-4 -22 -4 -43 -1 -46 3 -4 6 3 6 13 0 11 7 29 15 40 18
24 19 34 1 34 -9 0 -17 -16 -21 -41z"/>
<path d="M1061 2194 c0 -11 3 -14 6 -6 3 7 2 16 -1 19 -3 4 -6 -2 -5 -13z"/>
<path d="M1170 2120 c-8 -5 -12 -11 -9 -14 2 -3 11 -1 19 4 8 5 12 11 9 14 -2
3 -11 1 -19 -4z"/>
<path d="M766 233 c-11 -11 -6 -89 6 -101 7 -7 26 -13 43 -13 l30 -1 -30 -8
-30 -8 33 -1 c45 -1 37 22 -9 29 -31 5 -34 8 -37 44 -2 22 2 42 8 46 8 5 8 10
2 13 -5 4 -12 4 -16 0z"/>
<path d="M791 194 c0 -11 3 -14 6 -6 3 7 2 16 -1 19 -3 4 -6 -2 -5 -13z"/>
<path d="M2076 5111 c-6 -10 -2 -20 14 -33 29 -24 43 -23 28 1 -7 11 -15 18
-19 15 -4 -2 -9 4 -11 13 -3 15 -5 15 -12 4z"/>
<path d="M3136 5101 c-10 -11 -15 -25 -11 -30 10 -18 20 -13 38 19 15 24 15
30 4 30 -8 0 -22 -9 -31 -19z"/>
<path d="M3636 5089 c-28 -48 -98 -108 -163 -140 -59 -30 -103 -33 -87 -8 4 8
3 9 -5 5 -13 -9 -6 -43 15 -67 11 -13 10 -18 -7 -33 -11 -9 -18 -23 -15 -31 3
-8 -3 -17 -15 -20 -10 -4 -17 -11 -14 -16 4 -5 -9 -9 -27 -10 -30 0 -31 -1
-11 -11 16 -8 29 -6 54 6 43 21 48 13 10 -15 -40 -30 -40 -43 2 -25 17 7 31
19 29 25 -1 7 2 10 8 6 5 -3 13 2 17 12 4 10 11 22 17 26 8 6 7 10 -1 14 -7 2
-13 14 -12 26 0 17 5 12 19 -18 l19 -40 -42 -37 c-23 -20 -46 -37 -50 -38 -5
0 -22 -9 -38 -21 l-30 -21 38 -28 c43 -31 101 -90 89 -90 -4 0 0 -7 8 -16 9
-8 16 -27 15 -42 0 -33 -16 -113 -18 -92 -1 10 -8 7 -26 -12 -14 -15 -25 -32
-25 -37 0 -18 60 -52 98 -57 24 -3 48 -15 67 -35 26 -26 30 -36 30 -88 0 -48
-6 -67 -33 -111 -20 -32 -29 -56 -23 -59 7 -5 5 -23 -4 -55 -22 -74 -20 -86
14 -86 17 0 33 5 36 10 4 6 9 8 13 6 4 -2 16 2 27 10 21 15 28 73 10 87 -6 4
-1 14 12 25 12 9 25 31 29 47 17 73 93 185 127 185 4 0 7 6 7 13 0 13 77 70
134 98 53 26 75 74 79 169 6 134 49 210 150 261 20 11 37 24 37 29 0 5 7 6 17
3 10 -4 14 -2 10 4 -4 6 -1 11 6 10 50 -2 97 5 97 13 0 6 -6 10 -14 10 -8 0
-17 7 -20 16 -9 24 -7 28 7 15 17 -13 28 -4 20 17 -5 12 -1 14 15 10 15 -4 19
-2 15 8 -3 8 -19 18 -37 22 -30 8 -30 9 -8 16 16 6 29 3 43 -9 17 -16 19 -16
25 -2 11 30 -1 52 -35 63 -22 7 -29 13 -20 17 8 3 5 6 -9 6 -32 1 -21 15 33
40 53 25 68 27 40 4 -15 -12 -16 -14 -3 -10 9 3 33 9 52 13 32 5 36 10 36 36
l0 29 -409 -2 -408 -2 -17 -28z m66 -31 c-7 -7 -12 -8 -12 -2 0 6 3 14 7 17 3
4 9 5 12 2 2 -3 -1 -11 -7 -17z m748 18 c0 -2 -9 -6 -20 -9 -11 -3 -20 -1 -20
4 0 5 9 9 20 9 11 0 20 -2 20 -4z m-580 -76 c0 -5 -5 -10 -11 -10 -5 0 -7 5
-4 10 3 6 8 10 11 10 2 0 4 -4 4 -10z m500 -45 c0 -12 -4 -13 -26 -3 -19 9
-33 9 -57 0 -29 -10 -30 -10 -13 3 27 20 96 20 96 0z m-133 -117 c-3 -8 -6 -5
-6 6 -1 11 2 17 5 13 3 -3 4 -12 1 -19z m-600 -30 c-3 -8 -6 -5 -6 6 -1 11 2
17 5 13 3 -3 4 -12 1 -19z m-117 7 c0 -2 -10 -10 -22 -16 -21 -11 -22 -11 -9
4 13 16 31 23 31 12z m510 -74 c0 -22 -4 -50 -9 -63 -10 -25 -63 -88 -75 -88
-3 0 9 30 27 68 19 37 32 73 30 80 -6 17 4 42 17 42 5 0 10 -18 10 -39z m-504
-117 c-3 -8 -12 -14 -21 -14 -13 0 -12 5 3 37 15 32 17 33 20 14 2 -12 1 -29
-2 -37z m124 -174 c-18 -38 -35 -68 -38 -65 -3 3 9 37 28 75 19 38 36 68 38
65 2 -2 -11 -36 -28 -75z m290 4 c-18 -21 -24 -10 -9 18 8 14 14 18 17 10 2
-7 -2 -19 -8 -28z m-65 -24 c-9 -16 -18 -30 -21 -30 -2 0 2 14 11 30 9 17 18
30 21 30 2 0 -2 -13 -11 -30z m-341 -35 c-4 -8 -10 -15 -15 -15 -4 0 -6 7 -3
15 4 8 10 15 15 15 4 0 6 -7 3 -15z m-28 -81 c-3 -8 -10 -12 -16 -9 -7 4 -6
14 2 28 12 24 24 8 14 -19z m210 1 c4 -8 3 -23 0 -32 -6 -15 -8 -15 -16 -3
-13 20 -12 50 0 50 6 0 13 -7 16 -15z m-46 -80 c0 -8 -4 -15 -10 -15 -5 0 -10
7 -10 15 0 8 5 15 10 15 6 0 10 -7 10 -15z m-30 -221 c0 -20 -18 -17 -29 5 -9
16 -8 18 9 14 11 -3 20 -12 20 -19z"/>
<path d="M3382 5033 c-26 -13 -31 -20 -26 -37 10 -32 11 -32 67 -12 67 24 81
34 64 50 -18 18 -68 18 -105 -1z m48 -13 c-13 -9 -13 -10 0 -11 8 0 0 -7 -19
-15 -18 -8 -36 -13 -39 -10 -3 3 6 10 19 15 21 9 22 10 4 11 -17 0 -17 2 -5
10 8 5 24 10 35 10 17 0 17 -2 5 -10z"/>
<path d="M4440 5030 c19 -13 30 -13 30 0 0 6 -10 10 -22 10 -19 0 -20 -2 -8
-10z"/>
<path d="M1041 5014 c0 -11 3 -14 6 -6 3 7 2 16 -1 19 -3 4 -6 -2 -5 -13z"/>
<path d="M4382 5003 c21 -25 30 -80 17 -105 -11 -20 -11 -20 14 -2 21 16 23
22 14 39 -6 11 -12 29 -14 41 -4 26 24 28 33 2 6 -19 24 -25 24 -8 0 6 -4 10
-10 10 -5 0 -10 7 -10 15 0 8 -8 15 -17 16 -10 0 -29 2 -42 5 -23 4 -23 3 -9
-13z"/>
<path d="M1000 4990 c-8 -5 -10 -10 -5 -10 6 0 17 5 25 10 8 5 11 10 5 10 -5
0 -17 -5 -25 -10z"/>
<path d="M3323 4964 c3 -4 -1 -20 -9 -35 -11 -22 -12 -34 -4 -49 17 -32 32
-24 25 14 -4 20 -2 36 4 40 12 8 3 36 -12 36 -6 0 -8 -3 -4 -6z"/>
<path d="M938 4943 c7 -3 16 -2 19 1 4 3 -2 6 -13 5 -11 0 -14 -3 -6 -6z"/>
<path d="M4457 4876 c-4 -10 -5 -21 -2 -24 9 -9 17 6 13 25 -3 17 -4 17 -11
-1z"/>
<path d="M4400 4815 c-7 -8 -8 -15 -2 -15 5 0 15 7 22 15 7 8 8 15 2 15 -5 0
-15 -7 -22 -15z"/>
<path d="M4450 4818 c0 -7 5 -20 10 -28 8 -12 10 -9 10 13 0 15 -4 27 -10 27
-5 0 -10 -6 -10 -12z"/>
<path d="M4383 4767 c-18 -20 -18 -20 9 -3 18 12 27 13 30 5 3 -8 8 -7 16 4
20 24 -34 19 -55 -6z"/>
<path d="M3127 4692 c-14 -3 -18 -10 -14 -29 3 -18 0 -27 -13 -30 -17 -4 -62
-88 -52 -97 3 -3 18 6 35 20 16 14 36 23 43 20 11 -4 13 3 8 35 -5 28 -3 43 6
49 18 11 8 36 -13 32z"/>
<path d="M3250 4660 c-14 -10 -23 -21 -20 -23 3 -3 16 3 29 14 31 25 23 33 -9
9z"/>
<path d="M4094 4648 l-17 -33 26 24 c15 13 24 28 21 32 -8 14 -13 11 -30 -23z"/>
<path d="M4210 4600 c-13 -8 -12 -10 3 -10 9 0 17 5 17 10 0 12 -1 12 -20 0z"/>
<path d="M1715 4590 c-3 -5 -2 -10 4 -10 5 0 13 5 16 10 3 6 2 10 -4 10 -5 0
-13 -4 -16 -10z"/>
<path d="M1712 4558 c-15 -15 -16 -52 -1 -42 8 4 8 0 0 -15 -7 -12 -9 -27 -5
-33 11 -18 33 53 23 73 -5 9 -5 19 -2 23 3 3 4 6 2 6 -3 0 -10 -5 -17 -12z"/>
<path d="M4150 4563 c0 -4 8 -17 16 -28 15 -20 16 -20 12 4 -3 22 -28 44 -28
24z"/>
<path d="M3185 4550 c3 -5 12 -10 19 -10 6 0 17 -5 24 -12 9 -9 8 -16 -4 -29
-17 -19 -11 -39 10 -39 8 0 16 15 18 35 3 28 -1 38 -19 50 -25 17 -57 20 -48
5z"/>
<path d="M1561 4534 c0 -11 3 -14 6 -6 3 7 2 16 -1 19 -3 4 -6 -2 -5 -13z"/>
<path d="M1743 4514 c3 -4 2 -15 -4 -25 -6 -11 -6 -19 0 -19 9 0 21 23 21 41
0 5 -5 9 -12 9 -6 0 -8 -3 -5 -6z"/>
<path d="M3170 4510 c0 -6 7 -10 15 -10 8 0 15 2 15 4 0 2 -7 6 -15 10 -8 3
-15 1 -15 -4z"/>
<path d="M1540 4495 c0 -8 4 -15 10 -15 5 0 7 7 4 15 -4 8 -8 15 -10 15 -2 0
-4 -7 -4 -15z"/>
<path d="M3325 4499 c-4 -6 -5 -12 -2 -15 2 -3 7 2 10 11 7 17 1 20 -8 4z"/>
<path d="M3086 4481 c-9 -10 -19 -42 -22 -72 -5 -55 -1 -53 27 17 9 22 18 30
28 26 11 -4 13 -1 8 12 -4 10 -7 22 -7 27 0 15 -16 10 -34 -10z"/>
<path d="M4100 4486 c0 -2 7 -6 15 -10 8 -3 15 -1 15 4 0 6 -7 10 -15 10 -8 0
-15 -2 -15 -4z"/>
<path d="M3293 4467 c3 -9 2 -19 -4 -23 -5 -3 -7 -15 -4 -27 4 -15 3 -18 -3
-9 -7 11 -10 11 -15 -3 -5 -11 -3 -14 5 -9 8 5 9 2 5 -9 -11 -28 1 -19 18 13
18 35 19 66 3 76 -8 5 -9 2 -5 -9z"/>
<path d="M3041 4454 c0 -11 3 -14 6 -6 3 7 2 16 -1 19 -3 4 -6 -2 -5 -13z"/>
<path d="M3357 4463 c-4 -3 -7 -11 -7 -17 0 -6 5 -5 12 2 6 6 9 14 7 17 -3 3
-9 2 -12 -2z"/>
<path d="M3250 4431 c-11 -28 -14 -31 -22 -17 -7 13 -13 14 -30 5 -11 -6 -18
-7 -14 -1 3 5 -4 12 -16 15 -24 7 -41 -3 -20 -10 6 -3 9 -9 6 -15 -4 -7 6 -9
30 -6 29 3 40 0 47 -14 8 -15 5 -19 -21 -24 -16 -4 -30 -13 -30 -20 0 -8 -8
-14 -18 -14 -23 0 -26 -34 -4 -52 13 -11 15 -11 9 4 -6 18 16 43 32 34 5 -3 7
2 4 12 -3 13 4 22 22 30 14 7 23 16 20 22 -3 5 2 21 11 34 9 14 14 31 11 38
-3 7 -11 -2 -17 -21z"/>
<path d="M3199 4383 c-13 -16 -12 -17 4 -4 16 13 21 21 13 21 -2 0 -10 -8 -17
-17z"/>
<path d="M1490 4349 c0 -5 5 -7 10 -4 6 3 10 8 10 11 0 2 -4 4 -10 4 -5 0 -10
-5 -10 -11z"/>
<path d="M1461 4324 c0 -11 3 -14 6 -6 3 7 2 16 -1 19 -3 4 -6 -2 -5 -13z"/>
<path d="M3115 4330 c3 -5 -1 -10 -9 -10 -22 0 -20 -17 3 -23 14 -3 19 1 19
19 0 13 -5 24 -10 24 -5 0 -6 -4 -3 -10z"/>
<path d="M3238 4303 c7 -3 16 -2 19 1 4 3 -2 6 -13 5 -11 0 -14 -3 -6 -6z"/>
<path d="M3177 4273 c-10 -19 -12 -36 -6 -51 7 -20 12 -21 29 -12 17 9 19 14
10 25 -6 8 -9 23 -5 34 10 31 -13 34 -28 4z m11 -48 c-3 -3 -9 2 -12 12 -6 14
-5 15 5 6 7 -7 10 -15 7 -18z"/>
<path d="M1530 4265 c0 -15 4 -24 10 -20 6 3 10 12 10 20 0 8 -4 17 -10 20 -6
4 -10 -5 -10 -20z"/>
<path d="M1405 4259 c-10 -29 -13 -79 -5 -79 3 0 11 23 16 50 10 49 2 70 -11
29z"/>
<path d="M3098 4263 c7 -3 16 -2 19 1 4 3 -2 6 -13 5 -11 0 -14 -3 -6 -6z"/>
<path d="M3135 4260 c3 -5 8 -10 11 -10 2 0 4 5 4 10 0 6 -5 10 -11 10 -5 0
-7 -4 -4 -10z"/>
<path d="M3411 4253 c0 -12 -8 -29 -17 -37 -8 -9 -11 -16 -5 -16 15 0 33 38
28 58 -4 13 -5 11 -6 -5z"/>
<path d="M1430 4168 c0 -42 7 -75 21 -105 24 -49 39 -51 19 -3 -21 51 -3 46
22 -6 13 -26 30 -50 38 -52 12 -4 13 -2 3 10 -7 8 -20 31 -28 52 -15 36 -15
37 5 26 11 -6 20 -19 20 -28 0 -10 31 -45 70 -77 51 -45 72 -70 81 -100 11
-34 13 -36 17 -17 4 27 -16 82 -29 82 -5 0 -8 3 -7 8 4 16 -14 122 -22 127 -4
3 -24 6 -44 7 -20 2 -36 6 -36 9 0 4 -9 9 -20 12 -11 3 -20 0 -20 -5 0 -22
-28 13 -34 42 -8 42 -24 37 -29 -7 -4 -32 -5 -30 -5 12 0 72 -1 75 -12 75 -6
0 -10 -27 -10 -62z"/>
<path d="M1768 4203 c-20 -5 -24 -39 -7 -63 7 -11 8 -6 3 19 -5 29 -4 33 10
28 10 -4 16 -1 16 8 0 8 -1 14 -2 14 -2 -1 -11 -3 -20 -6z"/>
<path d="M3425 4119 c-19 -8 -19 -8 3 -15 19 -5 20 -9 10 -23 -11 -14 -10 -14
6 0 24 22 10 50 -19 38z"/>
<path d="M3796 4075 c-8 -8 -19 -15 -25 -15 -5 0 -13 -5 -17 -11 -10 -16 36
-1 65 22 17 14 19 19 8 19 -9 0 -22 -7 -31 -15z"/>
<path d="M3728 4073 c6 -2 18 -2 25 0 6 3 1 5 -13 5 -14 0 -19 -2 -12 -5z"/>
<path d="M3755 4020 c-3 -5 -1 -10 4 -10 6 0 11 5 11 10 0 6 -2 10 -4 10 -3 0
-8 -4 -11 -10z"/>
<path d="M3415 4010 c-27 -7 -28 -8 -5 -8 14 0 34 3 45 8 25 11 2 11 -40 0z"/>
<path d="M3500 3960 c-6 -12 -9 -24 -7 -27 3 -2 11 5 17 17 6 12 9 24 7 27 -3
2 -11 -5 -17 -17z"/>
<path d="M3693 3917 c-2 -4 9 -6 26 -5 17 1 31 5 31 9 0 9 -51 6 -57 -4z"/>
<path d="M3690 3875 c0 -29 12 -32 31 -9 10 13 10 17 -2 25 -23 14 -29 11 -29
-16z"/>
<path d="M3770 3850 c0 -5 5 -10 11 -10 5 0 7 5 4 10 -3 6 -8 10 -11 10 -2 0
-4 -4 -4 -10z"/>
<path d="M3826 3825 c-9 -23 -8 -25 9 -25 17 0 19 9 6 28 -7 11 -10 10 -15 -3z"/>
<path d="M3841 3790 c-2 -3 -4 -12 -6 -21 -7 -36 -17 -59 -24 -55 -4 3 -5 -11
-3 -31 l4 -35 19 53 c11 30 18 63 16 74 -3 11 -5 18 -6 15z"/>
<path d="M3288 3723 c7 -3 16 -2 19 1 4 3 -2 6 -13 5 -11 0 -14 -3 -6 -6z"/>
<path d="M3763 3615 c0 -7 6 -11 14 -8 7 3 13 6 13 8 0 2 -6 5 -13 8 -8 3 -14
-1 -14 -8z"/>
<path d="M3600 3560 c0 -13 11 -13 30 0 12 8 11 10 -7 10 -13 0 -23 -4 -23
-10z"/>
<path d="M1667 3530 c-10 -16 -14 -30 -10 -30 5 0 17 14 26 30 10 17 14 30 10
30 -5 0 -17 -13 -26 -30z"/>
<path d="M3275 3500 c3 -5 13 -10 21 -10 8 0 12 5 9 10 -3 6 -13 10 -21 10 -8
0 -12 -4 -9 -10z"/>
<path d="M3220 3490 c-8 -5 -10 -10 -5 -10 6 0 17 5 25 10 8 5 11 10 5 10 -5
0 -17 -5 -25 -10z"/>
<path d="M1599 3441 c-13 -10 -31 -21 -39 -24 -12 -4 -12 -6 2 -6 9 -1 30 10
45 24 33 29 27 34 -8 6z"/>
<path d="M3223 3424 c-16 -12 -15 -13 17 -10 19 2 41 -1 48 -6 8 -7 12 -7 12
0 0 5 -13 15 -29 20 -22 8 -34 7 -48 -4z"/>
<path d="M1244 3304 c-10 -8 -13 -12 -5 -8 7 3 17 0 22 -7 6 -10 9 -8 9 9 0
26 -1 26 -26 6z"/>
<path d="M3122 3297 c-16 -18 -4 -61 13 -47 9 8 14 6 18 -5 8 -18 34 -10 41
13 3 10 4 5 2 -10 -4 -38 7 -35 25 6 l16 34 -36 7 c-20 3 -43 8 -52 11 -9 2
-21 -2 -27 -9z m58 -21 c0 -3 -4 -8 -10 -11 -5 -3 -10 -1 -10 4 0 6 5 11 10
11 6 0 10 -2 10 -4z"/>
<path d="M1385 3260 c-10 -11 -16 -22 -13 -25 3 -3 13 4 23 15 10 11 16 22 13
25 -3 3 -13 -4 -23 -15z"/>
<path d="M1296 3238 c-3 -13 -1 -27 4 -32 7 -7 10 -4 10 6 0 9 3 23 6 32 3 9
2 16 -4 16 -5 0 -12 -10 -16 -22z"/>
<path d="M1329 3193 c-13 -16 -12 -17 4 -4 9 7 17 15 17 17 0 8 -8 3 -21 -13z"/>
<path d="M3133 3204 c4 -4 2 -13 -4 -21 -7 -8 -8 -13 -1 -13 5 0 15 6 21 14 9
11 8 15 -6 20 -10 4 -14 4 -10 0z"/>
<path d="M4425 1140 c-13 -15 -15 -24 -8 -31 19 -19 48 -6 51 24 4 33 -17 36
-43 7z"/>
<path d="M4290 877 c0 -21 11 -27 31 -16 27 14 23 29 -6 29 -14 0 -25 -6 -25
-13z"/>
<path d="M3490 700 c0 -7 6 -10 14 -7 7 3 19 0 26 -6 10 -9 11 -9 8 3 -5 18
-48 26 -48 10z"/>
<path d="M3955 701 c11 -5 40 -11 65 -14 41 -5 43 -4 26 9 -11 8 -40 14 -65
13 -33 0 -40 -2 -26 -8z"/>
<path d="M3661 680 c-1 -15 -7 -32 -13 -39 -11 -10 -7 -11 17 -7 17 2 33 5 38
5 4 1 7 9 7 18 0 13 -3 14 -12 5 -9 -9 -15 -6 -24 16 l-12 27 -1 -25z"/>
</g>
</svg>
